{"glyphs":{"0":{"ha":1250,"x_min":0,"x_max":1042,"o":"m 0 1250 l 69 1250 l 69 1319 l 208 1319 l 208 0 l 69 0 l 69 69 l 0 69 l 0 1250 m 833 1319 l 972 1319 l 972 1250 l 1042 1250 l 1042 69 l 972 69 l 972 0 l 833 0 l 833 1319 m 278 556 l 347 556 l 347 625 l 417 625 l 417 694 l 486 694 l 486 764 l 556 764 l 556 833 l 625 833 l 625 903 l 694 903 l 694 972 l 764 972 l 764 764 l 694 764 l 694 694 l 625 694 l 625 625 l 556 625 l 556 556 l 486 556 l 486 486 l 417 486 l 417 417 l 347 417 l 347 347 l 278 347 l 278 556 m 278 208 l 764 208 l 764 0 l 278 0 l 278 208 m 278 1319 l 764 1319 l 764 1111 l 278 1111 l 278 1319 z "},"1":{"ha":694,"x_min":0,"x_max":486,"o":"m 278 1319 l 486 1319 l 486 0 l 278 0 l 278 1319 m 0 1319 l 208 1319 l 208 1111 l 0 1111 l 0 1319 z "},"2":{"ha":1250,"x_min":0,"x_max":1042,"o":"m 0 694 l 69 694 l 69 764 l 208 764 l 208 0 l 0 0 l 0 694 m 833 1319 l 972 1319 l 972 1250 l 1042 1250 l 1042 625 l 972 625 l 972 556 l 833 556 l 833 1319 m 278 764 l 764 764 l 764 556 l 278 556 l 278 764 m 278 208 l 764 208 l 764 0 l 278 0 l 278 208 m 278 1319 l 764 1319 l 764 1111 l 278 1111 l 278 1319 m 833 208 l 1042 208 l 1042 0 l 833 0 l 833 208 m 0 1319 l 208 1319 l 208 1111 l 0 1111 l 0 1319 z "},"3":{"ha":1250,"x_min":0,"x_max":1042,"o":"m 833 1319 l 972 1319 l 972 1250 l 1042 1250 l 1042 764 l 972 764 l 972 694 l 833 694 l 833 1319 m 833 625 l 972 625 l 972 556 l 1042 556 l 1042 69 l 972 69 l 972 0 l 833 0 l 833 625 m 278 764 l 764 764 l 764 556 l 278 556 l 278 764 m 278 1319 l 764 1319 l 764 1111 l 278 1111 l 278 1319 m 278 208 l 764 208 l 764 0 l 278 0 l 278 208 m 0 208 l 208 208 l 208 0 l 0 0 l 0 208 m 0 1319 l 208 1319 l 208 1111 l 0 1111 l 0 1319 z "},"4":{"ha":1250,"x_min":0,"x_max":1042,"o":"m 833 1319 l 1042 1319 l 1042 0 l 833 0 l 833 1319 m 0 1319 l 208 1319 l 208 556 l 0 556 l 0 1319 m 278 764 l 764 764 l 764 556 l 278 556 l 278 764 z "},"5":{"ha":1250,"x_min":0,"x_max":1042,"o":"m 0 1319 l 208 1319 l 208 556 l 0 556 l 0 1319 m 833 764 l 972 764 l 972 694 l 1042 694 l 1042 69 l 972 69 l 972 0 l 833 0 l 833 764 m 278 764 l 764 764 l 764 556 l 278 556 l 278 764 m 278 208 l 764 208 l 764 0 l 278 0 l 278 208 m 278 1319 l 764 1319 l 764 1111 l 278 1111 l 278 1319 m 0 208 l 208 208 l 208 0 l 0 0 l 0 208 m 833 1319 l 1042 1319 l 1042 1111 l 833 1111 l 833 1319 z "},"6":{"ha":1250,"x_min":0,"x_max":1042,"o":"m 0 1250 l 69 1250 l 69 1319 l 208 1319 l 208 0 l 69 0 l 69 69 l 0 69 l 0 1250 m 833 764 l 972 764 l 972 694 l 1042 694 l 1042 69 l 972 69 l 972 0 l 833 0 l 833 764 m 278 764 l 764 764 l 764 556 l 278 556 l 278 764 m 278 208 l 764 208 l 764 0 l 278 0 l 278 208 m 278 1319 l 764 1319 l 764 1111 l 278 1111 l 278 1319 m 833 1319 l 1042 1319 l 1042 1111 l 833 1111 l 833 1319 z "},"7":{"ha":1250,"x_min":0,"x_max":1042,"o":"m 833 1319 l 1042 1319 l 1042 0 l 833 0 l 833 1319 m 278 1319 l 764 1319 l 764 1111 l 278 1111 l 278 1319 m 0 1319 l 208 1319 l 208 903 l 0 903 l 0 1319 z "},"8":{"ha":1250,"x_min":0,"x_max":1042,"o":"m 0 1250 l 69 1250 l 69 1319 l 208 1319 l 208 0 l 69 0 l 69 69 l 0 69 l 0 1250 m 833 1319 l 972 1319 l 972 1250 l 1042 1250 l 1042 69 l 972 69 l 972 0 l 833 0 l 833 1319 m 278 764 l 764 764 l 764 556 l 278 556 l 278 764 m 278 208 l 764 208 l 764 0 l 278 0 l 278 208 m 278 1319 l 764 1319 l 764 1111 l 278 1111 l 278 1319 z "},"9":{"ha":1250,"x_min":0,"x_max":1042,"o":"m 833 1319 l 972 1319 l 972 1250 l 1042 1250 l 1042 69 l 972 69 l 972 0 l 833 0 l 833 1319 m 0 1250 l 69 1250 l 69 1319 l 208 1319 l 208 556 l 69 556 l 69 625 l 0 625 l 0 1250 m 278 764 l 764 764 l 764 556 l 278 556 l 278 764 m 278 208 l 764 208 l 764 0 l 278 0 l 278 208 m 278 1319 l 764 1319 l 764 1111 l 278 1111 l 278 1319 m 0 208 l 208 208 l 208 0 l 0 0 l 0 208 z "}," ":{"ha":1250,"x_min":0,"x_max":0,"o":""},"$":{"ha":1250,"x_min":0,"x_max":1042,"o":"m 0 1250 l 69 1250 l 69 1319 l 208 1319 l 208 556 l 69 556 l 69 625 l 0 625 l 0 1250 m 833 764 l 972 764 l 972 694 l 1042 694 l 1042 69 l 972 69 l 972 0 l 833 0 l 833 764 m 278 1319 l 764 1319 l 764 1111 l 278 1111 l 278 1319 m 278 764 l 764 764 l 764 556 l 278 556 l 278 764 m 278 208 l 764 208 l 764 0 l 278 0 l 278 208 m 417 1042 l 625 1042 l 625 833 l 417 833 l 417 1042 m 417 486 l 625 486 l 625 278 l 417 278 l 417 486 m 0 208 l 208 208 l 208 0 l 0 0 l 0 208 m 833 1319 l 1042 1319 l 1042 1111 l 833 1111 l 833 1319 m 417 1597 l 625 1597 l 625 1389 l 417 1389 l 417 1597 m 417 -69 l 625 -69 l 625 -278 l 417 -278 l 417 -69 z "},"%":{"ha":1250,"x_min":0,"x_max":1042,"o":"m 278 556 l 347 556 l 347 625 l 417 625 l 417 694 l 486 694 l 486 764 l 556 764 l 556 833 l 625 833 l 625 903 l 694 903 l 694 972 l 764 972 l 764 694 l 694 694 l 694 625 l 625 625 l 625 556 l 556 556 l 556 486 l 486 486 l 486 417 l 417 417 l 417 347 l 347 347 l 347 278 l 278 278 l 278 556 m 0 1181 l 69 1181 l 69 1250 l 208 1250 l 208 1111 l 139 1111 l 139 903 l 208 903 l 208 764 l 69 764 l 69 833 l 0 833 l 0 1181 m 556 417 l 625 417 l 625 486 l 764 486 l 764 347 l 694 347 l 694 139 l 764 139 l 764 0 l 625 0 l 625 69 l 556 69 l 556 417 m 833 486 l 972 486 l 972 417 l 1042 417 l 1042 69 l 972 69 l 972 0 l 833 0 l 833 139 l 903 139 l 903 347 l 833 347 l 833 486 m 278 1250 l 417 1250 l 417 1181 l 486 1181 l 486 833 l 417 833 l 417 764 l 278 764 l 278 903 l 347 903 l 347 1111 l 278 1111 l 278 1250 m 833 1250 l 1042 1250 l 1042 972 l 972 972 l 972 903 l 903 903 l 903 833 l 833 833 l 833 1250 m 0 278 l 69 278 l 69 347 l 139 347 l 139 417 l 208 417 l 208 0 l 0 0 l 0 278 z "},"&":{"ha":1319,"x_min":0,"x_max":1111,"o":"m 0 1250 l 69 1250 l 69 1319 l 208 1319 l 208 0 l 69 0 l 69 69 l 0 69 l 0 1250 m 625 764 l 833 764 l 833 278 l 625 278 l 625 764 m 625 208 l 1111 208 l 1111 0 l 625 0 l 625 208 m 625 1319 l 764 1319 l 764 1250 l 833 1250 l 833 833 l 625 833 l 625 1319 m 278 208 l 556 208 l 556 0 l 278 0 l 278 208 m 278 764 l 556 764 l 556 556 l 278 556 l 278 764 m 278 1319 l 556 1319 l 556 1111 l 278 1111 l 278 1319 m 903 764 l 1111 764 l 1111 556 l 903 556 l 903 764 z "},"'":{"ha":417,"x_min":0,"x_max":208,"o":"m 0 1319 l 208 1319 l 208 903 l 0 903 l 0 1319 z "},"(":{"ha":694,"x_min":0,"x_max":486,"o":"m 0 1181 l 69 1181 l 69 1250 l 139 1250 l 139 1319 l 208 1319 l 208 0 l 139 0 l 139 69 l 69 69 l 69 139 l 0 139 l 0 1181 m 278 208 l 486 208 l 486 0 l 278 0 l 278 208 m 278 1319 l 486 1319 l 486 1111 l 278 1111 l 278 1319 z "},")":{"ha":694,"x_min":0,"x_max":486,"o":"m 278 1319 l 347 1319 l 347 1250 l 417 1250 l 417 1181 l 486 1181 l 486 139 l 417 139 l 417 69 l 347 69 l 347 0 l 278 0 l 278 1319 m 0 208 l 208 208 l 208 0 l 0 0 l 0 208 m 0 1319 l 208 1319 l 208 1111 l 0 1111 l 0 1319 z "},"*":{"ha":1250,"x_min":0,"x_max":1042,"o":"m 417 972 l 625 972 l 625 347 l 417 347 l 417 972 m 0 764 l 347 764 l 347 556 l 0 556 l 0 764 m 694 764 l 1042 764 l 1042 556 l 694 556 l 694 764 m 139 1181 l 347 1181 l 347 972 l 139 972 l 139 1181 m 139 347 l 347 347 l 347 139 l 139 139 l 139 347 m 694 347 l 903 347 l 903 139 l 694 139 l 694 347 m 694 1181 l 903 1181 l 903 972 l 694 972 l 694 1181 z "},"+":{"ha":1111,"x_min":0,"x_max":903,"o":"m 347 1111 l 556 1111 l 556 208 l 347 208 l 347 1111 m 0 764 l 278 764 l 278 556 l 0 556 l 0 764 m 625 764 l 903 764 l 903 556 l 625 556 l 625 764 z "},",":{"ha":486,"x_min":0,"x_max":278,"o":"m 0 208 l 139 208 l 139 139 l 208 139 l 208 69 l 278 69 l 278 -139 l 139 -139 l 139 -69 l 69 -69 l 69 0 l 0 0 l 0 208 z "},"-":{"ha":1111,"x_min":0,"x_max":903,"o":"m 278 764 l 625 764 l 625 556 l 278 556 l 278 764 m 0 764 l 208 764 l 208 556 l 0 556 l 0 764 m 694 764 l 903 764 l 903 556 l 694 556 l 694 764 z "},".":{"ha":417,"x_min":0,"x_max":208,"o":"m 0 208 l 208 208 l 208 0 l 0 0 l 0 208 z "},"/":{"ha":1250,"x_min":0,"x_max":1042,"o":"m 278 556 l 347 556 l 347 625 l 417 625 l 417 694 l 486 694 l 486 764 l 556 764 l 556 833 l 625 833 l 625 903 l 694 903 l 694 972 l 764 972 l 764 694 l 694 694 l 694 625 l 625 625 l 625 556 l 556 556 l 556 486 l 486 486 l 486 417 l 417 417 l 417 347 l 347 347 l 347 278 l 278 278 l 278 556 m 833 1250 l 1042 1250 l 1042 972 l 972 972 l 972 903 l 903 903 l 903 833 l 833 833 l 833 1250 m 0 278 l 69 278 l 69 347 l 139 347 l 139 417 l 208 417 l 208 0 l 0 0 l 0 278 z "},":":{"ha":417,"x_min":0,"x_max":208,"o":"m 0 1042 l 208 1042 l 208 833 l 0 833 l 0 1042 m 0 486 l 208 486 l 208 278 l 0 278 l 0 486 z "},";":{"ha":486,"x_min":0,"x_max":278,"o":"m 0 208 l 139 208 l 139 139 l 208 139 l 208 69 l 278 69 l 278 -139 l 139 -139 l 139 -69 l 69 -69 l 69 0 l 0 0 l 0 208 m 0 1042 l 208 1042 l 208 833 l 0 833 l 0 1042 z "},"<":{"ha":764,"x_min":0,"x_max":556,"o":"m 278 972 l 347 972 l 347 1042 l 417 1042 l 417 1111 l 556 1111 l 556 903 l 486 903 l 486 833 l 417 833 l 417 764 l 347 764 l 347 694 l 278 694 l 278 972 m 278 625 l 347 625 l 347 556 l 417 556 l 417 486 l 486 486 l 486 417 l 556 417 l 556 208 l 417 208 l 417 278 l 347 278 l 347 347 l 278 347 l 278 625 m 0 694 l 69 694 l 69 764 l 139 764 l 139 833 l 208 833 l 208 486 l 139 486 l 139 556 l 69 556 l 69 625 l 0 625 l 0 694 z "},"=":{"ha":1250,"x_min":0,"x_max":1042,"o":"m 278 972 l 764 972 l 764 764 l 278 764 l 278 972 m 278 556 l 764 556 l 764 347 l 278 347 l 278 556 m 0 972 l 208 972 l 208 764 l 0 764 l 0 972 m 0 556 l 208 556 l 208 347 l 0 347 l 0 556 m 833 972 l 1042 972 l 1042 764 l 833 764 l 833 972 m 833 556 l 1042 556 l 1042 347 l 833 347 l 833 556 z "},">":{"ha":764,"x_min":0,"x_max":556,"o":"m 0 1111 l 139 1111 l 139 1042 l 208 1042 l 208 972 l 278 972 l 278 694 l 208 694 l 208 764 l 139 764 l 139 833 l 69 833 l 69 903 l 0 903 l 0 1111 m 0 417 l 69 417 l 69 486 l 139 486 l 139 556 l 208 556 l 208 625 l 278 625 l 278 347 l 208 347 l 208 278 l 139 278 l 139 208 l 0 208 l 0 417 m 347 833 l 417 833 l 417 764 l 486 764 l 486 694 l 556 694 l 556 625 l 486 625 l 486 556 l 417 556 l 417 486 l 347 486 l 347 833 z "},"?":{"ha":1250,"x_min":0,"x_max":1042,"o":"m 833 1319 l 972 1319 l 972 1250 l 1042 1250 l 1042 625 l 972 625 l 972 556 l 833 556 l 833 1319 m 417 694 l 486 694 l 486 764 l 764 764 l 764 556 l 625 556 l 625 278 l 417 278 l 417 694 m 278 1319 l 764 1319 l 764 1111 l 278 1111 l 278 1319 m 0 1250 l 69 1250 l 69 1319 l 208 1319 l 208 903 l 0 903 l 0 1250 m 417 208 l 625 208 l 625 0 l 417 0 l 417 208 z "},"@":{"ha":1250,"x_min":0,"x_max":1042,"o":"m 0 1250 l 69 1250 l 69 1319 l 208 1319 l 208 0 l 69 0 l 69 69 l 0 69 l 0 1250 m 833 1319 l 972 1319 l 972 1250 l 1042 1250 l 1042 486 l 972 486 l 972 417 l 833 417 l 833 1319 m 278 208 l 764 208 l 764 0 l 278 0 l 278 208 m 278 1319 l 764 1319 l 764 1111 l 278 1111 l 278 1319 m 278 625 l 764 625 l 764 417 l 278 417 l 278 625 m 833 208 l 1042 208 l 1042 0 l 833 0 l 833 208 z "},"A":{"ha":1250,"x_min":0,"x_max":1042,"o":"m 0 1250 l 69 1250 l 69 1319 l 208 1319 l 208 0 l 0 0 l 0 1250 m 833 1319 l 972 1319 l 972 1250 l 1042 1250 l 1042 0 l 833 0 l 833 1319 m 278 764 l 764 764 l 764 556 l 278 556 l 278 764 m 278 1319 l 764 1319 l 764 1111 l 278 1111 l 278 1319 z "},"B":{"ha":1250,"x_min":0,"x_max":1042,"o":"m 0 1319 l 208 1319 l 208 0 l 0 0 l 0 1319 m 833 1319 l 972 1319 l 972 1250 l 1042 1250 l 1042 764 l 972 764 l 972 694 l 833 694 l 833 1319 m 833 625 l 972 625 l 972 556 l 1042 556 l 1042 69 l 972 69 l 972 0 l 833 0 l 833 625 m 278 764 l 764 764 l 764 556 l 278 556 l 278 764 m 278 208 l 764 208 l 764 0 l 278 0 l 278 208 m 278 1319 l 764 1319 l 764 1111 l 278 1111 l 278 1319 z "},"C":{"ha":1250,"x_min":0,"x_max":1042,"o":"m 0 1250 l 69 1250 l 69 1319 l 208 1319 l 208 0 l 69 0 l 69 69 l 0 69 l 0 1250 m 278 1319 l 764 1319 l 764 1111 l 278 1111 l 278 1319 m 278 208 l 764 208 l 764 0 l 278 0 l 278 208 m 833 208 l 1042 208 l 1042 0 l 833 0 l 833 208 m 833 1319 l 1042 1319 l 1042 1111 l 833 1111 l 833 1319 z "},"D":{"ha":1250,"x_min":0,"x_max":1042,"o":"m 0 1319 l 208 1319 l 208 0 l 0 0 l 0 1319 m 833 1319 l 903 1319 l 903 1250 l 972 1250 l 972 1181 l 1042 1181 l 1042 139 l 972 139 l 972 69 l 903 69 l 903 0 l 833 0 l 833 1319 m 278 208 l 764 208 l 764 0 l 278 0 l 278 208 m 278 1319 l 764 1319 l 764 1111 l 278 1111 l 278 1319 z "},"E":{"ha":1250,"x_min":0,"x_max":1042,"o":"m 0 1319 l 208 1319 l 208 0 l 0 0 l 0 1319 m 278 208 l 1042 208 l 1042 0 l 278 0 l 278 208 m 278 1319 l 1042 1319 l 1042 1111 l 278 1111 l 278 1319 m 278 764 l 764 764 l 764 556 l 278 556 l 278 764 z "},"F":{"ha":1250,"x_min":0,"x_max":1042,"o":"m 0 1319 l 208 1319 l 208 0 l 0 0 l 0 1319 m 278 764 l 764 764 l 764 556 l 278 556 l 278 764 m 278 1319 l 764 1319 l 764 1111 l 278 1111 l 278 1319 m 833 1319 l 1042 1319 l 1042 1111 l 833 1111 l 833 1319 z "},"G":{"ha":1250,"x_min":0,"x_max":1042,"o":"m 0 1250 l 69 1250 l 69 1319 l 208 1319 l 208 0 l 69 0 l 69 69 l 0 69 l 0 1250 m 833 764 l 972 764 l 972 694 l 1042 694 l 1042 69 l 972 69 l 972 0 l 833 0 l 833 764 m 278 208 l 764 208 l 764 0 l 278 0 l 278 208 m 278 1319 l 764 1319 l 764 1111 l 278 1111 l 278 1319 m 486 764 l 764 764 l 764 556 l 486 556 l 486 764 m 833 1319 l 1042 1319 l 1042 1111 l 833 1111 l 833 1319 z "},"H":{"ha":1250,"x_min":0,"x_max":1042,"o":"m 0 1319 l 208 1319 l 208 0 l 0 0 l 0 1319 m 833 1319 l 1042 1319 l 1042 0 l 833 0 l 833 1319 m 278 764 l 764 764 l 764 556 l 278 556 l 278 764 z "},"I":{"ha":1250,"x_min":0,"x_max":1042,"o":"m 417 1319 l 625 1319 l 625 0 l 417 0 l 417 1319 m 0 1319 l 347 1319 l 347 1111 l 0 1111 l 0 1319 m 694 1319 l 1042 1319 l 1042 1111 l 694 1111 l 694 1319 m 0 208 l 347 208 l 347 0 l 0 0 l 0 208 m 694 208 l 1042 208 l 1042 0 l 694 0 l 694 208 z "},"J":{"ha":1250,"x_min":0,"x_max":1042,"o":"m 833 1319 l 1042 1319 l 1042 69 l 972 69 l 972 0 l 833 0 l 833 1319 m 0 556 l 208 556 l 208 0 l 69 0 l 69 69 l 0 69 l 0 556 m 278 1319 l 764 1319 l 764 1111 l 278 1111 l 278 1319 m 278 208 l 764 208 l 764 0 l 278 0 l 278 208 m 0 1319 l 208 1319 l 208 1111 l 0 1111 l 0 1319 z "},"K":{"ha":1250,"x_min":0,"x_max":1042,"o":"m 0 1319 l 208 1319 l 208 0 l 0 0 l 0 1319 m 278 764 l 347 764 l 347 833 l 417 833 l 417 903 l 486 903 l 486 972 l 556 972 l 556 1042 l 625 1042 l 625 1111 l 694 1111 l 694 1181 l 764 1181 l 764 903 l 694 903 l 694 833 l 625 833 l 625 764 l 556 764 l 556 556 l 625 556 l 625 486 l 694 486 l 694 417 l 764 417 l 764 139 l 694 139 l 694 208 l 625 208 l 625 278 l 556 278 l 556 347 l 486 347 l 486 417 l 417 417 l 417 486 l 347 486 l 347 556 l 278 556 l 278 764 m 833 278 l 903 278 l 903 208 l 972 208 l 972 139 l 1042 139 l 1042 0 l 833 0 l 833 278 m 833 1319 l 1042 1319 l 1042 1181 l 972 1181 l 972 1111 l 903 1111 l 903 1042 l 833 1042 l 833 1319 z "},"L":{"ha":1250,"x_min":0,"x_max":1042,"o":"m 0 1319 l 208 1319 l 208 0 l 0 0 l 0 1319 m 278 208 l 764 208 l 764 0 l 278 0 l 278 208 m 833 208 l 1042 208 l 1042 0 l 833 0 l 833 208 z "},"M":{"ha":1250,"x_min":0,"x_max":1042,"o":"m 0 1319 l 208 1319 l 208 0 l 0 0 l 0 1319 m 833 1319 l 1042 1319 l 1042 0 l 833 0 l 833 1319 m 278 972 l 347 972 l 347 903 l 417 903 l 417 833 l 486 833 l 486 764 l 556 764 l 556 833 l 625 833 l 625 903 l 694 903 l 694 972 l 764 972 l 764 694 l 694 694 l 694 625 l 625 625 l 625 556 l 556 556 l 556 486 l 486 486 l 486 556 l 417 556 l 417 625 l 347 625 l 347 694 l 278 694 l 278 972 z "},"N":{"ha":1250,"x_min":0,"x_max":1042,"o":"m 0 1319 l 208 1319 l 208 0 l 0 0 l 0 1319 m 833 1319 l 1042 1319 l 1042 0 l 833 0 l 833 1319 m 278 972 l 347 972 l 347 903 l 417 903 l 417 833 l 486 833 l 486 764 l 556 764 l 556 694 l 625 694 l 625 625 l 694 625 l 694 556 l 764 556 l 764 278 l 694 278 l 694 347 l 625 347 l 625 417 l 556 417 l 556 486 l 486 486 l 486 556 l 417 556 l 417 625 l 347 625 l 347 694 l 278 694 l 278 972 z "},"O":{"ha":1250,"x_min":0,"x_max":1042,"o":"m 0 1250 l 69 1250 l 69 1319 l 208 1319 l 208 0 l 69 0 l 69 69 l 0 69 l 0 1250 m 833 1319 l 972 1319 l 972 1250 l 1042 1250 l 1042 69 l 972 69 l 972 0 l 833 0 l 833 1319 m 278 208 l 764 208 l 764 0 l 278 0 l 278 208 m 278 1319 l 764 1319 l 764 1111 l 278 1111 l 278 1319 z "},"P":{"ha":1250,"x_min":0,"x_max":1042,"o":"m 0 1319 l 208 1319 l 208 0 l 0 0 l 0 1319 m 833 1319 l 972 1319 l 972 1250 l 1042 1250 l 1042 625 l 972 625 l 972 556 l 833 556 l 833 1319 m 278 764 l 764 764 l 764 556 l 278 556 l 278 764 m 278 1319 l 764 1319 l 764 1111 l 278 1111 l 278 1319 z "},"Q":{"ha":1250,"x_min":0,"x_max":1042,"o":"m 0 1250 l 69 1250 l 69 1319 l 208 1319 l 208 0 l 69 0 l 69 69 l 0 69 l 0 1250 m 833 1319 l 972 1319 l 972 1250 l 1042 1250 l 1042 69 l 972 69 l 972 0 l 833 0 l 833 1319 m 278 208 l 764 208 l 764 0 l 278 0 l 278 208 m 278 1319 l 764 1319 l 764 1111 l 278 1111 l 278 1319 m 556 486 l 764 486 l 764 278 l 556 278 l 556 486 z "},"R":{"ha":1250,"x_min":0,"x_max":1042,"o":"m 0 1319 l 208 1319 l 208 0 l 0 0 l 0 1319 m 833 1319 l 972 1319 l 972 1250 l 1042 1250 l 1042 625 l 972 625 l 972 556 l 833 556 l 833 1319 m 417 486 l 694 486 l 694 417 l 764 417 l 764 347 l 833 347 l 833 278 l 903 278 l 903 208 l 972 208 l 972 139 l 1042 139 l 1042 0 l 833 0 l 833 69 l 764 69 l 764 139 l 694 139 l 694 208 l 625 208 l 625 278 l 556 278 l 556 347 l 486 347 l 486 417 l 417 417 l 417 486 m 278 764 l 764 764 l 764 556 l 278 556 l 278 764 m 278 1319 l 764 1319 l 764 1111 l 278 1111 l 278 1319 z "},"S":{"ha":1250,"x_min":0,"x_max":1042,"o":"m 0 1250 l 69 1250 l 69 1319 l 208 1319 l 208 556 l 69 556 l 69 625 l 0 625 l 0 1250 m 833 764 l 972 764 l 972 694 l 1042 694 l 1042 69 l 972 69 l 972 0 l 833 0 l 833 764 m 278 208 l 764 208 l 764 0 l 278 0 l 278 208 m 278 764 l 764 764 l 764 556 l 278 556 l 278 764 m 278 1319 l 764 1319 l 764 1111 l 278 1111 l 278 1319 m 0 208 l 208 208 l 208 0 l 0 0 l 0 208 m 833 1319 l 1042 1319 l 1042 1111 l 833 1111 l 833 1319 z "},"T":{"ha":1250,"x_min":0,"x_max":1042,"o":"m 417 1319 l 625 1319 l 625 0 l 417 0 l 417 1319 m 0 1319 l 347 1319 l 347 1111 l 0 1111 l 0 1319 m 694 1319 l 1042 1319 l 1042 1111 l 694 1111 l 694 1319 z "},"U":{"ha":1250,"x_min":0,"x_max":1042,"o":"m 0 1319 l 208 1319 l 208 0 l 69 0 l 69 69 l 0 69 l 0 1319 m 833 1319 l 1042 1319 l 1042 69 l 972 69 l 972 0 l 833 0 l 833 1319 m 278 208 l 764 208 l 764 0 l 278 0 l 278 208 z "},"V":{"ha":1250,"x_min":0,"x_max":1042,"o":"m 0 1319 l 208 1319 l 208 347 l 139 347 l 139 417 l 69 417 l 69 486 l 0 486 l 0 1319 m 833 1319 l 1042 1319 l 1042 486 l 972 486 l 972 417 l 903 417 l 903 347 l 833 347 l 833 1319 m 278 486 l 347 486 l 347 417 l 417 417 l 417 347 l 486 347 l 486 278 l 556 278 l 556 347 l 625 347 l 625 417 l 694 417 l 694 486 l 764 486 l 764 208 l 694 208 l 694 139 l 625 139 l 625 69 l 556 69 l 556 0 l 486 0 l 486 69 l 417 69 l 417 139 l 347 139 l 347 208 l 278 208 l 278 486 z "},"W":{"ha":1250,"x_min":0,"x_max":1042,"o":"m 0 1319 l 208 1319 l 208 0 l 69 0 l 69 69 l 0 69 l 0 1319 m 833 1319 l 1042 1319 l 1042 69 l 972 69 l 972 0 l 833 0 l 833 1319 m 417 1111 l 625 1111 l 625 278 l 417 278 l 417 1111 m 278 208 l 764 208 l 764 0 l 278 0 l 278 208 z "},"X":{"ha":1250,"x_min":0,"x_max":1042,"o":"m 278 903 l 347 903 l 347 833 l 417 833 l 417 764 l 625 764 l 625 833 l 694 833 l 694 903 l 764 903 l 764 694 l 694 694 l 694 625 l 764 625 l 764 417 l 694 417 l 694 486 l 625 486 l 625 556 l 417 556 l 417 486 l 347 486 l 347 417 l 278 417 l 278 625 l 347 625 l 347 694 l 278 694 l 278 903 m 0 417 l 69 417 l 69 486 l 139 486 l 139 556 l 208 556 l 208 0 l 0 0 l 0 417 m 833 556 l 903 556 l 903 486 l 972 486 l 972 417 l 1042 417 l 1042 0 l 833 0 l 833 556 m 0 1319 l 208 1319 l 208 764 l 139 764 l 139 833 l 69 833 l 69 903 l 0 903 l 0 1319 m 833 1319 l 1042 1319 l 1042 903 l 972 903 l 972 833 l 903 833 l 903 764 l 833 764 l 833 1319 z "},"Y":{"ha":1250,"x_min":0,"x_max":1042,"o":"m 278 903 l 347 903 l 347 833 l 417 833 l 417 764 l 486 764 l 486 694 l 556 694 l 556 764 l 625 764 l 625 833 l 694 833 l 694 903 l 764 903 l 764 625 l 694 625 l 694 556 l 625 556 l 625 0 l 417 0 l 417 556 l 347 556 l 347 625 l 278 625 l 278 903 m 0 1319 l 208 1319 l 208 764 l 139 764 l 139 833 l 69 833 l 69 903 l 0 903 l 0 1319 m 833 1319 l 1042 1319 l 1042 903 l 972 903 l 972 833 l 903 833 l 903 764 l 833 764 l 833 1319 z "},"Z":{"ha":1250,"x_min":0,"x_max":1042,"o":"m 278 556 l 347 556 l 347 625 l 417 625 l 417 694 l 486 694 l 486 764 l 556 764 l 556 833 l 625 833 l 625 903 l 694 903 l 694 972 l 764 972 l 764 694 l 694 694 l 694 625 l 625 625 l 625 556 l 556 556 l 556 486 l 486 486 l 486 417 l 417 417 l 417 347 l 347 347 l 347 278 l 278 278 l 278 556 m 278 1319 l 764 1319 l 764 1111 l 278 1111 l 278 1319 m 278 208 l 764 208 l 764 0 l 278 0 l 278 208 m 833 1319 l 1042 1319 l 1042 972 l 972 972 l 972 903 l 903 903 l 903 833 l 833 833 l 833 1319 m 0 278 l 69 278 l 69 347 l 139 347 l 139 417 l 208 417 l 208 0 l 0 0 l 0 278 m 0 1319 l 208 1319 l 208 1111 l 0 1111 l 0 1319 m 833 208 l 1042 208 l 1042 0 l 833 0 l 833 208 z "},"[":{"ha":694,"x_min":0,"x_max":486,"o":"m 0 1319 l 208 1319 l 208 0 l 0 0 l 0 1319 m 278 208 l 486 208 l 486 0 l 278 0 l 278 208 m 278 1319 l 486 1319 l 486 1111 l 278 1111 l 278 1319 z "},"\\":{"ha":1250,"x_min":0,"x_max":1042,"o":"m 278 972 l 347 972 l 347 903 l 417 903 l 417 833 l 486 833 l 486 764 l 556 764 l 556 694 l 625 694 l 625 625 l 694 625 l 694 556 l 764 556 l 764 278 l 694 278 l 694 347 l 625 347 l 625 417 l 556 417 l 556 486 l 486 486 l 486 556 l 417 556 l 417 625 l 347 625 l 347 694 l 278 694 l 278 972 m 0 1250 l 208 1250 l 208 833 l 139 833 l 139 903 l 69 903 l 69 972 l 0 972 l 0 1250 m 833 417 l 903 417 l 903 347 l 972 347 l 972 278 l 1042 278 l 1042 0 l 833 0 l 833 417 z "},"]":{"ha":694,"x_min":0,"x_max":486,"o":"m 278 1319 l 486 1319 l 486 0 l 278 0 l 278 1319 m 0 208 l 208 208 l 208 0 l 0 0 l 0 208 m 0 1319 l 208 1319 l 208 1111 l 0 1111 l 0 1319 z "},"^":{"ha":972,"x_min":0,"x_max":764,"o":"m 0 972 l 69 972 l 69 1042 l 139 1042 l 139 1111 l 208 1111 l 208 1181 l 278 1181 l 278 1250 l 347 1250 l 347 972 l 278 972 l 278 903 l 208 903 l 208 833 l 139 833 l 139 764 l 0 764 l 0 972 m 417 1250 l 486 1250 l 486 1181 l 556 1181 l 556 1111 l 625 1111 l 625 1042 l 694 1042 l 694 972 l 764 972 l 764 764 l 625 764 l 625 833 l 556 833 l 556 903 l 486 903 l 486 972 l 417 972 l 417 1250 z "},"_":{"ha":1250,"x_min":0,"x_max":1042,"o":"m 0 208 l 347 208 l 347 0 l 0 0 l 0 208 m 694 208 l 1042 208 l 1042 0 l 694 0 l 694 208 m 417 208 l 625 208 l 625 0 l 417 0 l 417 208 z "},"`":{"ha":625,"x_min":0,"x_max":417,"o":"m 0 1319 l 139 1319 l 139 1250 l 208 1250 l 208 1181 l 278 1181 l 278 1111 l 347 1111 l 347 1042 l 417 1042 l 417 903 l 208 903 l 208 972 l 139 972 l 139 1042 l 69 1042 l 69 1111 l 0 1111 l 0 1319 z "},"a":{"ha":1250,"x_min":0,"x_max":1042,"o":"m 833 1042 l 972 1042 l 972 972 l 1042 972 l 1042 0 l 833 0 l 833 1042 m 0 556 l 69 556 l 69 625 l 208 625 l 208 0 l 69 0 l 69 69 l 0 69 l 0 556 m 278 625 l 764 625 l 764 417 l 278 417 l 278 625 m 278 208 l 764 208 l 764 0 l 278 0 l 278 208 m 278 1042 l 764 1042 l 764 833 l 278 833 l 278 1042 m 0 1042 l 208 1042 l 208 833 l 0 833 l 0 1042 z "},"b":{"ha":1250,"x_min":0,"x_max":1042,"o":"m 0 1319 l 208 1319 l 208 0 l 0 0 l 0 1319 m 833 1042 l 972 1042 l 972 972 l 1042 972 l 1042 69 l 972 69 l 972 0 l 833 0 l 833 1042 m 278 1042 l 764 1042 l 764 833 l 278 833 l 278 1042 m 278 208 l 764 208 l 764 0 l 278 0 l 278 208 z "},"c":{"ha":1250,"x_min":0,"x_max":1042,"o":"m 0 972 l 69 972 l 69 1042 l 208 1042 l 208 0 l 69 0 l 69 69 l 0 69 l 0 972 m 278 208 l 764 208 l 764 0 l 278 0 l 278 208 m 278 1042 l 764 1042 l 764 833 l 278 833 l 278 1042 m 833 208 l 1042 208 l 1042 0 l 833 0 l 833 208 m 833 1042 l 1042 1042 l 1042 833 l 833 833 l 833 1042 z "},"d":{"ha":1250,"x_min":0,"x_max":1042,"o":"m 833 1319 l 1042 1319 l 1042 0 l 833 0 l 833 1319 m 0 972 l 69 972 l 69 1042 l 208 1042 l 208 0 l 69 0 l 69 69 l 0 69 l 0 972 m 278 208 l 764 208 l 764 0 l 278 0 l 278 208 m 278 1042 l 764 1042 l 764 833 l 278 833 l 278 1042 z "},"e":{"ha":1250,"x_min":0,"x_max":1042,"o":"m 0 972 l 69 972 l 69 1042 l 208 1042 l 208 0 l 69 0 l 69 69 l 0 69 l 0 972 m 833 1042 l 972 1042 l 972 972 l 1042 972 l 1042 486 l 972 486 l 972 417 l 833 417 l 833 1042 m 278 625 l 764 625 l 764 417 l 278 417 l 278 625 m 278 208 l 764 208 l 764 0 l 278 0 l 278 208 m 278 1042 l 764 1042 l 764 833 l 278 833 l 278 1042 m 833 208 l 1042 208 l 1042 0 l 833 0 l 833 208 z "},"f":{"ha":1250,"x_min":0,"x_max":1042,"o":"m 278 1250 l 347 1250 l 347 1319 l 486 1319 l 486 0 l 278 0 l 278 1250 m 556 1319 l 1042 1319 l 1042 1111 l 556 1111 l 556 1319 m 556 903 l 833 903 l 833 694 l 556 694 l 556 903 m 0 903 l 208 903 l 208 694 l 0 694 l 0 903 z "},"g":{"ha":1250,"x_min":0,"x_max":1042,"o":"m 833 1042 l 972 1042 l 972 972 l 1042 972 l 1042 -347 l 972 -347 l 972 -417 l 833 -417 l 833 1042 m 0 972 l 69 972 l 69 1042 l 208 1042 l 208 0 l 69 0 l 69 69 l 0 69 l 0 972 m 278 -208 l 764 -208 l 764 -417 l 278 -417 l 278 -208 m 278 1042 l 764 1042 l 764 833 l 278 833 l 278 1042 m 278 208 l 764 208 l 764 0 l 278 0 l 278 208 m 0 -208 l 208 -208 l 208 -417 l 0 -417 l 0 -208 z "},"h":{"ha":1250,"x_min":0,"x_max":1042,"o":"m 0 1319 l 208 1319 l 208 0 l 0 0 l 0 1319 m 833 1042 l 972 1042 l 972 972 l 1042 972 l 1042 0 l 833 0 l 833 1042 m 278 1042 l 764 1042 l 764 833 l 278 833 l 278 1042 z "},"i":{"ha":972,"x_min":0,"x_max":764,"o":"m 278 1042 l 486 1042 l 486 0 l 278 0 l 278 1042 m 0 208 l 208 208 l 208 0 l 0 0 l 0 208 m 556 1042 l 764 1042 l 764 833 l 556 833 l 556 1042 m 556 208 l 764 208 l 764 0 l 556 0 l 556 208 m 278 1389 l 486 1389 l 486 1181 l 278 1181 l 278 1389 m 0 1042 l 208 1042 l 208 833 l 0 833 l 0 1042 z "},"j":{"ha":972,"x_min":0,"x_max":764,"o":"m 556 1042 l 764 1042 l 764 -347 l 694 -347 l 694 -417 l 556 -417 l 556 1042 m 0 1042 l 486 1042 l 486 833 l 0 833 l 0 1042 m 0 -208 l 486 -208 l 486 -417 l 0 -417 l 0 -208 m 278 1389 l 486 1389 l 486 1181 l 278 1181 l 278 1389 z "},"k":{"ha":1250,"x_min":0,"x_max":1042,"o":"m 0 1319 l 208 1319 l 208 0 l 0 0 l 0 1319 m 278 625 l 486 625 l 486 694 l 556 694 l 556 764 l 625 764 l 625 833 l 694 833 l 694 903 l 764 903 l 764 625 l 694 625 l 694 556 l 625 556 l 625 486 l 694 486 l 694 417 l 764 417 l 764 139 l 694 139 l 694 208 l 625 208 l 625 278 l 556 278 l 556 347 l 486 347 l 486 417 l 278 417 l 278 625 m 833 1042 l 1042 1042 l 1042 903 l 972 903 l 972 833 l 903 833 l 903 764 l 833 764 l 833 1042 m 833 278 l 903 278 l 903 208 l 972 208 l 972 139 l 1042 139 l 1042 0 l 833 0 l 833 278 z "},"l":{"ha":972,"x_min":0,"x_max":764,"o":"m 278 1319 l 486 1319 l 486 0 l 278 0 l 278 1319 m 0 208 l 208 208 l 208 0 l 0 0 l 0 208 m 556 208 l 764 208 l 764 0 l 556 0 l 556 208 m 0 1319 l 208 1319 l 208 1111 l 0 1111 l 0 1319 z "},"m":{"ha":1250,"x_min":0,"x_max":1042,"o":"m 0 1042 l 208 1042 l 208 0 l 0 0 l 0 1042 m 833 1042 l 972 1042 l 972 972 l 1042 972 l 1042 0 l 833 0 l 833 1042 m 417 764 l 625 764 l 625 0 l 417 0 l 417 764 m 278 1042 l 764 1042 l 764 833 l 278 833 l 278 1042 z "},"n":{"ha":1250,"x_min":0,"x_max":1042,"o":"m 0 1042 l 208 1042 l 208 0 l 0 0 l 0 1042 m 833 1042 l 972 1042 l 972 972 l 1042 972 l 1042 0 l 833 0 l 833 1042 m 278 1042 l 764 1042 l 764 833 l 278 833 l 278 1042 z "},"o":{"ha":1250,"x_min":0,"x_max":1042,"o":"m 0 972 l 69 972 l 69 1042 l 208 1042 l 208 0 l 69 0 l 69 69 l 0 69 l 0 972 m 833 1042 l 972 1042 l 972 972 l 1042 972 l 1042 69 l 972 69 l 972 0 l 833 0 l 833 1042 m 278 1042 l 764 1042 l 764 833 l 278 833 l 278 1042 m 278 208 l 764 208 l 764 0 l 278 0 l 278 208 z "},"p":{"ha":1250,"x_min":0,"x_max":1042,"o":"m 0 1042 l 208 1042 l 208 -417 l 0 -417 l 0 1042 m 833 1042 l 972 1042 l 972 972 l 1042 972 l 1042 69 l 972 69 l 972 0 l 833 0 l 833 1042 m 278 1042 l 764 1042 l 764 833 l 278 833 l 278 1042 m 278 208 l 764 208 l 764 0 l 278 0 l 278 208 z "},"q":{"ha":1250,"x_min":0,"x_max":1042,"o":"m 833 1042 l 1042 1042 l 1042 -417 l 833 -417 l 833 1042 m 0 972 l 69 972 l 69 1042 l 208 1042 l 208 0 l 69 0 l 69 69 l 0 69 l 0 972 m 278 1042 l 764 1042 l 764 833 l 278 833 l 278 1042 m 278 208 l 764 208 l 764 0 l 278 0 l 278 208 z "},"r":{"ha":1250,"x_min":0,"x_max":1042,"o":"m 0 1042 l 208 1042 l 208 0 l 0 0 l 0 1042 m 278 1042 l 764 1042 l 764 833 l 278 833 l 278 1042 m 833 1042 l 972 1042 l 972 972 l 1042 972 l 1042 694 l 833 694 l 833 1042 z "},"s":{"ha":1250,"x_min":0,"x_max":1042,"o":"m 0 972 l 69 972 l 69 1042 l 208 1042 l 208 417 l 69 417 l 69 486 l 0 486 l 0 972 m 833 625 l 972 625 l 972 556 l 1042 556 l 1042 69 l 972 69 l 972 0 l 833 0 l 833 625 m 278 1042 l 764 1042 l 764 833 l 278 833 l 278 1042 m 278 625 l 764 625 l 764 417 l 278 417 l 278 625 m 278 208 l 764 208 l 764 0 l 278 0 l 278 208 m 0 208 l 208 208 l 208 0 l 0 0 l 0 208 m 833 1042 l 1042 1042 l 1042 833 l 833 833 l 833 1042 z "},"t":{"ha":1250,"x_min":0,"x_max":1042,"o":"m 278 1319 l 486 1319 l 486 0 l 347 0 l 347 69 l 278 69 l 278 1319 m 556 208 l 1042 208 l 1042 0 l 556 0 l 556 208 m 556 903 l 833 903 l 833 694 l 556 694 l 556 903 m 0 903 l 208 903 l 208 694 l 0 694 l 0 903 z "},"u":{"ha":1250,"x_min":0,"x_max":1042,"o":"m 0 1042 l 208 1042 l 208 0 l 69 0 l 69 69 l 0 69 l 0 1042 m 833 1042 l 1042 1042 l 1042 69 l 972 69 l 972 0 l 833 0 l 833 1042 m 278 208 l 764 208 l 764 0 l 278 0 l 278 208 z "},"v":{"ha":1250,"x_min":0,"x_max":1042,"o":"m 278 486 l 347 486 l 347 417 l 417 417 l 417 347 l 486 347 l 486 278 l 556 278 l 556 347 l 625 347 l 625 417 l 694 417 l 694 486 l 764 486 l 764 208 l 694 208 l 694 139 l 625 139 l 625 69 l 556 69 l 556 0 l 486 0 l 486 69 l 417 69 l 417 139 l 347 139 l 347 208 l 278 208 l 278 486 m 0 1042 l 208 1042 l 208 347 l 139 347 l 139 417 l 69 417 l 69 486 l 0 486 l 0 1042 m 833 1042 l 1042 1042 l 1042 486 l 972 486 l 972 417 l 903 417 l 903 347 l 833 347 l 833 1042 z "},"w":{"ha":1250,"x_min":0,"x_max":1042,"o":"m 0 1042 l 208 1042 l 208 0 l 69 0 l 69 69 l 0 69 l 0 1042 m 833 1042 l 1042 1042 l 1042 69 l 972 69 l 972 0 l 833 0 l 833 1042 m 417 833 l 625 833 l 625 278 l 417 278 l 417 833 m 278 208 l 764 208 l 764 0 l 278 0 l 278 208 z "},"x":{"ha":1250,"x_min":0,"x_max":1042,"o":"m 278 903 l 347 903 l 347 833 l 417 833 l 417 764 l 486 764 l 486 694 l 556 694 l 556 764 l 625 764 l 625 833 l 694 833 l 694 903 l 764 903 l 764 625 l 694 625 l 694 556 l 625 556 l 625 486 l 694 486 l 694 417 l 764 417 l 764 139 l 694 139 l 694 208 l 625 208 l 625 278 l 556 278 l 556 347 l 486 347 l 486 278 l 417 278 l 417 208 l 347 208 l 347 139 l 278 139 l 278 417 l 347 417 l 347 486 l 417 486 l 417 556 l 347 556 l 347 625 l 278 625 l 278 903 m 0 1042 l 208 1042 l 208 764 l 139 764 l 139 833 l 69 833 l 69 903 l 0 903 l 0 1042 m 0 139 l 69 139 l 69 208 l 139 208 l 139 278 l 208 278 l 208 0 l 0 0 l 0 139 m 833 278 l 903 278 l 903 208 l 972 208 l 972 139 l 1042 139 l 1042 0 l 833 0 l 833 278 m 833 1042 l 1042 1042 l 1042 903 l 972 903 l 972 833 l 903 833 l 903 764 l 833 764 l 833 1042 z "},"y":{"ha":1250,"x_min":0,"x_max":1042,"o":"m 833 1042 l 1042 1042 l 1042 -347 l 972 -347 l 972 -417 l 833 -417 l 833 1042 m 0 1042 l 208 1042 l 208 0 l 69 0 l 69 69 l 0 69 l 0 1042 m 278 -208 l 764 -208 l 764 -417 l 278 -417 l 278 -208 m 278 208 l 764 208 l 764 0 l 278 0 l 278 208 m 0 -208 l 208 -208 l 208 -417 l 0 -417 l 0 -208 z "},"z":{"ha":1250,"x_min":0,"x_max":1042,"o":"m 278 1042 l 764 1042 l 764 833 l 278 833 l 278 1042 m 278 625 l 764 625 l 764 417 l 278 417 l 278 625 m 278 208 l 764 208 l 764 0 l 278 0 l 278 208 m 0 347 l 69 347 l 69 417 l 139 417 l 139 486 l 208 486 l 208 0 l 0 0 l 0 347 m 833 1042 l 1042 1042 l 1042 694 l 972 694 l 972 625 l 903 625 l 903 556 l 833 556 l 833 1042 m 833 208 l 1042 208 l 1042 0 l 833 0 l 833 208 m 0 1042 l 208 1042 l 208 833 l 0 833 l 0 1042 z "},"{":{"ha":903,"x_min":0,"x_max":694,"o":"m 208 1250 l 278 1250 l 278 1319 l 417 1319 l 417 0 l 278 0 l 278 69 l 208 69 l 208 1250 m 486 208 l 694 208 l 694 0 l 486 0 l 486 208 m 486 1319 l 694 1319 l 694 1111 l 486 1111 l 486 1319 m 0 764 l 139 764 l 139 556 l 0 556 l 0 764 z "},"|":{"ha":417,"x_min":0,"x_max":208,"o":"m 0 1319 l 208 1319 l 208 0 l 0 0 l 0 1319 z "},"}":{"ha":903,"x_min":0,"x_max":694,"o":"m 278 1319 l 417 1319 l 417 1250 l 486 1250 l 486 69 l 417 69 l 417 0 l 278 0 l 278 1319 m 0 208 l 208 208 l 208 0 l 0 0 l 0 208 m 0 1319 l 208 1319 l 208 1111 l 0 1111 l 0 1319 m 556 764 l 694 764 l 694 556 l 556 556 l 556 764 z "},"~":{"ha":1250,"x_min":69,"x_max":1042,"o":"m 69 694 l 139 694 l 139 764 l 208 764 l 208 833 l 347 833 l 347 625 l 278 625 l 278 556 l 208 556 l 208 486 l 69 486 l 69 694 m 764 694 l 833 694 l 833 764 l 903 764 l 903 833 l 1042 833 l 1042 625 l 972 625 l 972 556 l 903 556 l 903 486 l 764 486 l 764 694 m 417 833 l 556 833 l 556 764 l 625 764 l 625 694 l 694 694 l 694 486 l 556 486 l 556 556 l 486 556 l 486 625 l 417 625 l 417 833 z "},"€":{"ha":1458,"x_min":0,"x_max":1250,"o":"m 208 1250 l 278 1250 l 278 1319 l 417 1319 l 417 0 l 278 0 l 278 69 l 208 69 l 208 1250 m 486 208 l 972 208 l 972 0 l 486 0 l 486 208 m 486 1319 l 972 1319 l 972 1111 l 486 1111 l 486 1319 m 486 972 l 972 972 l 972 764 l 486 764 l 486 972 m 486 556 l 972 556 l 972 347 l 486 347 l 486 556 m 1042 208 l 1250 208 l 1250 0 l 1042 0 l 1042 208 m 1042 1319 l 1250 1319 l 1250 1111 l 1042 1111 l 1042 1319 m 0 972 l 139 972 l 139 764 l 0 764 l 0 972 m 0 556 l 139 556 l 139 347 l 0 347 l 0 556 z "},"‚":{"ha":486,"x_min":0,"x_max":278,"o":"m 0 208 l 139 208 l 139 139 l 208 139 l 208 69 l 278 69 l 278 -139 l 139 -139 l 139 -69 l 69 -69 l 69 0 l 0 0 l 0 208 z "},"ƒ":{"ha":1250,"x_min":0,"x_max":1042,"o":"m 278 1250 l 347 1250 l 347 1319 l 486 1319 l 486 69 l 417 69 l 417 0 l 278 0 l 278 1250 m 556 1319 l 1042 1319 l 1042 1111 l 556 1111 l 556 1319 m 556 903 l 833 903 l 833 694 l 556 694 l 556 903 m 0 903 l 208 903 l 208 694 l 0 694 l 0 903 m 0 208 l 208 208 l 208 0 l 0 0 l 0 208 z "},"„":{"ha":764,"x_min":0,"x_max":556,"o":"m 0 208 l 208 208 l 208 -139 l 69 -139 l 69 0 l 0 0 l 0 208 m 347 208 l 556 208 l 556 -139 l 417 -139 l 417 0 l 347 0 l 347 208 z "},"…":{"ha":1111,"x_min":0,"x_max":903,"o":"m 0 208 l 208 208 l 208 0 l 0 0 l 0 208 m 694 208 l 903 208 l 903 0 l 694 0 l 694 208 m 347 208 l 556 208 l 556 0 l 347 0 l 347 208 z "},"†":{"ha":972,"x_min":0,"x_max":764,"o":"m 278 1319 l 486 1319 l 486 0 l 278 0 l 278 1319 m 556 1111 l 764 1111 l 764 903 l 556 903 l 556 1111 m 0 1111 l 208 1111 l 208 903 l 0 903 l 0 1111 z "},"‡":{"ha":972,"x_min":0,"x_max":764,"o":"m 278 1319 l 486 1319 l 486 0 l 278 0 l 278 1319 m 556 1111 l 764 1111 l 764 903 l 556 903 l 556 1111 m 0 417 l 208 417 l 208 208 l 0 208 l 0 417 m 556 417 l 764 417 l 764 208 l 556 208 l 556 417 m 0 1111 l 208 1111 l 208 903 l 0 903 l 0 1111 z "},"ˆ":{"ha":833,"x_min":0,"x_max":625,"o":"m 0 1042 l 69 1042 l 69 1111 l 139 1111 l 139 1181 l 208 1181 l 208 1250 l 278 1250 l 278 972 l 208 972 l 208 903 l 139 903 l 139 833 l 0 833 l 0 1042 m 347 1250 l 417 1250 l 417 1181 l 486 1181 l 486 1111 l 556 1111 l 556 1042 l 625 1042 l 625 833 l 486 833 l 486 903 l 417 903 l 417 972 l 347 972 l 347 1250 z "},"‰":{"ha":1806,"x_min":0,"x_max":1597,"o":"m 278 556 l 347 556 l 347 625 l 417 625 l 417 694 l 486 694 l 486 764 l 556 764 l 556 833 l 625 833 l 625 903 l 694 903 l 694 972 l 764 972 l 764 694 l 694 694 l 694 625 l 625 625 l 625 556 l 556 556 l 556 486 l 486 486 l 486 417 l 417 417 l 417 347 l 347 347 l 347 278 l 278 278 l 278 556 m 0 1181 l 69 1181 l 69 1250 l 208 1250 l 208 1111 l 139 1111 l 139 903 l 208 903 l 208 764 l 69 764 l 69 833 l 0 833 l 0 1181 m 556 417 l 625 417 l 625 486 l 764 486 l 764 347 l 694 347 l 694 139 l 764 139 l 764 0 l 625 0 l 625 69 l 556 69 l 556 417 m 833 486 l 972 486 l 972 417 l 1042 417 l 1042 69 l 972 69 l 972 0 l 833 0 l 833 139 l 903 139 l 903 347 l 833 347 l 833 486 m 1111 417 l 1181 417 l 1181 486 l 1319 486 l 1319 347 l 1250 347 l 1250 139 l 1319 139 l 1319 0 l 1181 0 l 1181 69 l 1111 69 l 1111 417 m 278 1250 l 417 1250 l 417 1181 l 486 1181 l 486 833 l 417 833 l 417 764 l 278 764 l 278 903 l 347 903 l 347 1111 l 278 1111 l 278 1250 m 1389 486 l 1528 486 l 1528 417 l 1597 417 l 1597 69 l 1528 69 l 1528 0 l 1389 0 l 1389 139 l 1458 139 l 1458 347 l 1389 347 l 1389 486 m 833 1250 l 1042 1250 l 1042 972 l 972 972 l 972 903 l 903 903 l 903 833 l 833 833 l 833 1250 m 0 278 l 69 278 l 69 347 l 139 347 l 139 417 l 208 417 l 208 0 l 0 0 l 0 278 z "},"Š":{"ha":1250,"x_min":0,"x_max":1042,"o":"m 0 1250 l 69 1250 l 69 1319 l 208 1319 l 208 556 l 69 556 l 69 625 l 0 625 l 0 1250 m 833 764 l 972 764 l 972 694 l 1042 694 l 1042 69 l 972 69 l 972 0 l 833 0 l 833 764 m 278 764 l 764 764 l 764 556 l 278 556 l 278 764 m 278 208 l 764 208 l 764 0 l 278 0 l 278 208 m 278 1319 l 764 1319 l 764 1111 l 278 1111 l 278 1319 m 556 1528 l 625 1528 l 625 1597 l 694 1597 l 694 1667 l 833 1667 l 833 1528 l 764 1528 l 764 1458 l 694 1458 l 694 1389 l 556 1389 l 556 1528 m 208 1667 l 347 1667 l 347 1597 l 417 1597 l 417 1528 l 486 1528 l 486 1389 l 347 1389 l 347 1458 l 278 1458 l 278 1528 l 208 1528 l 208 1667 m 0 208 l 208 208 l 208 0 l 0 0 l 0 208 m 833 1319 l 1042 1319 l 1042 1111 l 833 1111 l 833 1319 z "},"‹":{"ha":833,"x_min":0,"x_max":625,"o":"m 278 1042 l 347 1042 l 347 1111 l 417 1111 l 417 1181 l 625 1181 l 625 1042 l 556 1042 l 556 972 l 486 972 l 486 903 l 417 903 l 417 833 l 347 833 l 347 764 l 278 764 l 278 1042 m 278 556 l 347 556 l 347 486 l 417 486 l 417 417 l 486 417 l 486 347 l 556 347 l 556 278 l 625 278 l 625 139 l 417 139 l 417 208 l 347 208 l 347 278 l 278 278 l 278 556 m 0 764 l 69 764 l 69 833 l 139 833 l 139 903 l 208 903 l 208 417 l 139 417 l 139 486 l 69 486 l 69 556 l 0 556 l 0 764 z "},"Œ":{"ha":1806,"x_min":0,"x_max":1597,"o":"m 694 1319 l 903 1319 l 903 0 l 694 0 l 694 1319 m 0 1250 l 69 1250 l 69 1319 l 208 1319 l 208 0 l 69 0 l 69 69 l 0 69 l 0 1250 m 972 1319 l 1319 1319 l 1319 1111 l 972 1111 l 972 1319 m 278 208 l 625 208 l 625 0 l 278 0 l 278 208 m 278 1319 l 625 1319 l 625 1111 l 278 1111 l 278 1319 m 972 208 l 1319 208 l 1319 0 l 972 0 l 972 208 m 972 764 l 1319 764 l 1319 556 l 972 556 l 972 764 m 1389 1319 l 1597 1319 l 1597 1111 l 1389 1111 l 1389 1319 m 1389 208 l 1597 208 l 1597 0 l 1389 0 l 1389 208 z "},"Ž":{"ha":1250,"x_min":0,"x_max":1042,"o":"m 278 556 l 347 556 l 347 625 l 417 625 l 417 694 l 486 694 l 486 764 l 556 764 l 556 833 l 625 833 l 625 903 l 694 903 l 694 972 l 764 972 l 764 694 l 694 694 l 694 625 l 625 625 l 625 556 l 556 556 l 556 486 l 486 486 l 486 417 l 417 417 l 417 347 l 347 347 l 347 278 l 278 278 l 278 556 m 278 1319 l 764 1319 l 764 1111 l 278 1111 l 278 1319 m 278 208 l 764 208 l 764 0 l 278 0 l 278 208 m 833 1319 l 1042 1319 l 1042 972 l 972 972 l 972 903 l 903 903 l 903 833 l 833 833 l 833 1319 m 0 278 l 69 278 l 69 347 l 139 347 l 139 417 l 208 417 l 208 0 l 0 0 l 0 278 m 208 1667 l 347 1667 l 347 1597 l 417 1597 l 417 1528 l 486 1528 l 486 1389 l 347 1389 l 347 1458 l 278 1458 l 278 1528 l 208 1528 l 208 1667 m 556 1528 l 625 1528 l 625 1597 l 694 1597 l 694 1667 l 833 1667 l 833 1528 l 764 1528 l 764 1458 l 694 1458 l 694 1389 l 556 1389 l 556 1528 m 833 208 l 1042 208 l 1042 0 l 833 0 l 833 208 m 0 1319 l 208 1319 l 208 1111 l 0 1111 l 0 1319 z "},"‘":{"ha":417,"x_min":0,"x_max":208,"o":"m 0 1458 l 139 1458 l 139 1319 l 208 1319 l 208 1111 l 0 1111 l 0 1458 z "},"’":{"ha":417,"x_min":0,"x_max":208,"o":"m 0 1319 l 208 1319 l 208 972 l 69 972 l 69 1111 l 0 1111 l 0 1319 z "},"“":{"ha":764,"x_min":0,"x_max":556,"o":"m 0 1458 l 139 1458 l 139 1319 l 208 1319 l 208 1111 l 0 1111 l 0 1458 m 347 1458 l 486 1458 l 486 1319 l 556 1319 l 556 1111 l 347 1111 l 347 1458 z "},"”":{"ha":764,"x_min":0,"x_max":556,"o":"m 0 1319 l 208 1319 l 208 972 l 69 972 l 69 1111 l 0 1111 l 0 1319 m 347 1319 l 556 1319 l 556 972 l 417 972 l 417 1111 l 347 1111 l 347 1319 z "},"•":{"ha":556,"x_min":0,"x_max":347,"o":"m 0 764 l 69 764 l 69 833 l 278 833 l 278 764 l 347 764 l 347 556 l 278 556 l 278 486 l 69 486 l 69 556 l 0 556 l 0 764 z "},"–":{"ha":1111,"x_min":0,"x_max":903,"o":"m 208 764 l 694 764 l 694 556 l 208 556 l 208 764 m 0 764 l 139 764 l 139 556 l 0 556 l 0 764 m 764 764 l 903 764 l 903 556 l 764 556 l 764 764 z "},"—":{"ha":1389,"x_min":0,"x_max":1181,"o":"m 347 764 l 833 764 l 833 556 l 347 556 l 347 764 m 0 764 l 278 764 l 278 556 l 0 556 l 0 764 m 903 764 l 1181 764 l 1181 556 l 903 556 l 903 764 z "},"˜":{"ha":1181,"x_min":0,"x_max":972,"o":"m 347 1319 l 486 1319 l 486 1250 l 556 1250 l 556 1181 l 625 1181 l 625 972 l 486 972 l 486 1042 l 417 1042 l 417 1111 l 347 1111 l 347 1319 m 694 1181 l 764 1181 l 764 1250 l 972 1250 l 972 1111 l 903 1111 l 903 1042 l 833 1042 l 833 972 l 694 972 l 694 1181 m 0 1181 l 69 1181 l 69 1250 l 139 1250 l 139 1319 l 278 1319 l 278 1111 l 208 1111 l 208 1042 l 0 1042 l 0 1181 z "},"™":{"ha":2083,"x_min":0,"x_max":1875,"o":"m 347 1042 l 556 1042 l 556 0 l 347 0 l 347 1042 m 972 1042 l 1181 1042 l 1181 0 l 972 0 l 972 1042 m 1667 1042 l 1875 1042 l 1875 0 l 1667 0 l 1667 1042 m 1250 764 l 1319 764 l 1319 694 l 1389 694 l 1389 625 l 1458 625 l 1458 694 l 1528 694 l 1528 764 l 1597 764 l 1597 486 l 1528 486 l 1528 417 l 1458 417 l 1458 347 l 1389 347 l 1389 417 l 1319 417 l 1319 486 l 1250 486 l 1250 764 m 0 1042 l 278 1042 l 278 833 l 0 833 l 0 1042 m 625 1042 l 903 1042 l 903 833 l 625 833 l 625 1042 z "},"š":{"ha":1250,"x_min":0,"x_max":1042,"o":"m 0 972 l 69 972 l 69 1042 l 208 1042 l 208 417 l 69 417 l 69 486 l 0 486 l 0 972 m 833 625 l 972 625 l 972 556 l 1042 556 l 1042 69 l 972 69 l 972 0 l 833 0 l 833 625 m 278 208 l 764 208 l 764 0 l 278 0 l 278 208 m 278 625 l 764 625 l 764 417 l 278 417 l 278 625 m 278 1042 l 764 1042 l 764 833 l 278 833 l 278 1042 m 556 1250 l 625 1250 l 625 1319 l 694 1319 l 694 1389 l 833 1389 l 833 1250 l 764 1250 l 764 1181 l 694 1181 l 694 1111 l 556 1111 l 556 1250 m 208 1389 l 347 1389 l 347 1319 l 417 1319 l 417 1250 l 486 1250 l 486 1111 l 347 1111 l 347 1181 l 278 1181 l 278 1250 l 208 1250 l 208 1389 m 0 208 l 208 208 l 208 0 l 0 0 l 0 208 m 833 1042 l 1042 1042 l 1042 833 l 833 833 l 833 1042 z "},"›":{"ha":833,"x_min":0,"x_max":625,"o":"m 0 1181 l 208 1181 l 208 1111 l 278 1111 l 278 1042 l 347 1042 l 347 764 l 278 764 l 278 833 l 208 833 l 208 903 l 139 903 l 139 972 l 69 972 l 69 1042 l 0 1042 l 0 1181 m 0 278 l 69 278 l 69 347 l 139 347 l 139 417 l 208 417 l 208 486 l 278 486 l 278 556 l 347 556 l 347 278 l 278 278 l 278 208 l 208 208 l 208 139 l 0 139 l 0 278 m 417 903 l 486 903 l 486 833 l 556 833 l 556 764 l 625 764 l 625 556 l 556 556 l 556 486 l 486 486 l 486 417 l 417 417 l 417 903 z "},"œ":{"ha":1806,"x_min":0,"x_max":1597,"o":"m 694 1042 l 903 1042 l 903 0 l 694 0 l 694 1042 m 0 972 l 69 972 l 69 1042 l 208 1042 l 208 0 l 69 0 l 69 69 l 0 69 l 0 972 m 1389 1042 l 1528 1042 l 1528 972 l 1597 972 l 1597 486 l 1528 486 l 1528 417 l 1389 417 l 1389 1042 m 972 1042 l 1319 1042 l 1319 833 l 972 833 l 972 1042 m 278 208 l 625 208 l 625 0 l 278 0 l 278 208 m 972 208 l 1319 208 l 1319 0 l 972 0 l 972 208 m 278 1042 l 625 1042 l 625 833 l 278 833 l 278 1042 m 972 625 l 1319 625 l 1319 417 l 972 417 l 972 625 m 1389 208 l 1597 208 l 1597 0 l 1389 0 l 1389 208 z "},"ž":{"ha":1250,"x_min":0,"x_max":1042,"o":"m 278 1042 l 764 1042 l 764 833 l 278 833 l 278 1042 m 278 625 l 764 625 l 764 417 l 278 417 l 278 625 m 278 208 l 764 208 l 764 0 l 278 0 l 278 208 m 833 1042 l 1042 1042 l 1042 694 l 972 694 l 972 625 l 903 625 l 903 556 l 833 556 l 833 1042 m 0 347 l 69 347 l 69 417 l 139 417 l 139 486 l 208 486 l 208 0 l 0 0 l 0 347 m 208 1389 l 347 1389 l 347 1319 l 417 1319 l 417 1250 l 486 1250 l 486 1111 l 347 1111 l 347 1181 l 278 1181 l 278 1250 l 208 1250 l 208 1389 m 556 1250 l 625 1250 l 625 1319 l 694 1319 l 694 1389 l 833 1389 l 833 1250 l 764 1250 l 764 1181 l 694 1181 l 694 1111 l 556 1111 l 556 1250 m 833 208 l 1042 208 l 1042 0 l 833 0 l 833 208 m 0 1042 l 208 1042 l 208 833 l 0 833 l 0 1042 z "},"Ÿ":{"ha":1250,"x_min":0,"x_max":1042,"o":"m 278 903 l 347 903 l 347 833 l 417 833 l 417 764 l 486 764 l 486 694 l 556 694 l 556 764 l 625 764 l 625 833 l 694 833 l 694 903 l 764 903 l 764 625 l 694 625 l 694 556 l 625 556 l 625 0 l 417 0 l 417 556 l 347 556 l 347 625 l 278 625 l 278 903 m 0 1319 l 208 1319 l 208 764 l 139 764 l 139 833 l 69 833 l 69 903 l 0 903 l 0 1319 m 833 1319 l 1042 1319 l 1042 903 l 972 903 l 972 833 l 903 833 l 903 764 l 833 764 l 833 1319 m 208 1667 l 417 1667 l 417 1458 l 208 1458 l 208 1667 m 625 1667 l 833 1667 l 833 1458 l 625 1458 l 625 1667 z "},"¡":{"ha":417,"x_min":0,"x_max":208,"o":"m 0 972 l 208 972 l 208 0 l 0 0 l 0 972 m 0 1319 l 208 1319 l 208 1111 l 0 1111 l 0 1319 z "},"¢":{"ha":1250,"x_min":0,"x_max":1042,"o":"m 0 972 l 69 972 l 69 1042 l 208 1042 l 208 0 l 69 0 l 69 69 l 0 69 l 0 972 m 278 1042 l 764 1042 l 764 833 l 278 833 l 278 1042 m 556 764 l 764 764 l 764 278 l 556 278 l 556 764 m 278 208 l 764 208 l 764 0 l 278 0 l 278 208 m 833 1042 l 1042 1042 l 1042 833 l 833 833 l 833 1042 m 833 208 l 1042 208 l 1042 0 l 833 0 l 833 208 m 556 1250 l 764 1250 l 764 1111 l 556 1111 l 556 1250 m 556 -69 l 764 -69 l 764 -208 l 556 -208 l 556 -69 z "},"£":{"ha":1250,"x_min":0,"x_max":1042,"o":"m 278 1250 l 347 1250 l 347 1319 l 486 1319 l 486 0 l 278 0 l 278 1250 m 556 1319 l 1042 1319 l 1042 1111 l 556 1111 l 556 1319 m 556 208 l 903 208 l 903 0 l 556 0 l 556 208 m 556 903 l 833 903 l 833 694 l 556 694 l 556 903 m 0 903 l 208 903 l 208 694 l 0 694 l 0 903 m 0 208 l 208 208 l 208 0 l 0 0 l 0 208 z "},"¤":{"ha":1250,"x_min":0,"x_max":1042,"o":"m 208 972 l 417 972 l 417 625 l 208 625 l 208 972 m 486 972 l 833 972 l 833 764 l 486 764 l 486 972 m 625 694 l 833 694 l 833 347 l 625 347 l 625 694 m 208 556 l 556 556 l 556 347 l 208 347 l 208 556 m 694 1111 l 764 1111 l 764 1181 l 1042 1181 l 1042 903 l 972 903 l 972 833 l 903 833 l 903 1042 l 694 1042 l 694 1111 m 0 417 l 69 417 l 69 486 l 139 486 l 139 278 l 347 278 l 347 208 l 278 208 l 278 139 l 0 139 l 0 417 m 0 1181 l 278 1181 l 278 1111 l 347 1111 l 347 1042 l 139 1042 l 139 833 l 69 833 l 69 903 l 0 903 l 0 1181 m 694 278 l 903 278 l 903 486 l 972 486 l 972 417 l 1042 417 l 1042 139 l 764 139 l 764 208 l 694 208 l 694 278 z "},"¥":{"ha":1250,"x_min":0,"x_max":1042,"o":"m 278 903 l 347 903 l 347 833 l 417 833 l 417 764 l 486 764 l 486 694 l 556 694 l 556 764 l 625 764 l 625 833 l 694 833 l 694 903 l 764 903 l 764 625 l 694 625 l 694 556 l 625 556 l 625 0 l 417 0 l 417 556 l 347 556 l 347 625 l 278 625 l 278 903 m 0 1319 l 208 1319 l 208 764 l 139 764 l 139 833 l 69 833 l 69 903 l 0 903 l 0 1319 m 833 1319 l 1042 1319 l 1042 903 l 972 903 l 972 833 l 903 833 l 903 764 l 833 764 l 833 1319 m 69 486 l 347 486 l 347 347 l 69 347 l 69 486 m 694 208 l 972 208 l 972 69 l 694 69 l 694 208 m 694 486 l 972 486 l 972 347 l 694 347 l 694 486 m 69 208 l 347 208 l 347 69 l 69 69 l 69 208 z "},"¦":{"ha":417,"x_min":0,"x_max":208,"o":"m 0 625 l 208 625 l 208 0 l 0 0 l 0 625 m 0 1319 l 208 1319 l 208 764 l 0 764 l 0 1319 z "},"§":{"ha":1250,"x_min":0,"x_max":1042,"o":"m 833 1319 l 972 1319 l 972 1250 l 1042 1250 l 1042 417 l 972 417 l 972 347 l 833 347 l 833 1319 m 0 903 l 69 903 l 69 972 l 208 972 l 208 0 l 69 0 l 69 69 l 0 69 l 0 903 m 278 208 l 764 208 l 764 0 l 278 0 l 278 208 m 278 1319 l 764 1319 l 764 1111 l 278 1111 l 278 1319 m 278 972 l 764 972 l 764 764 l 278 764 l 278 972 m 278 556 l 764 556 l 764 347 l 278 347 l 278 556 m 833 208 l 1042 208 l 1042 0 l 833 0 l 833 208 m 0 1319 l 208 1319 l 208 1111 l 0 1111 l 0 1319 z "},"¨":{"ha":764,"x_min":0,"x_max":556,"o":"m 0 1319 l 208 1319 l 208 1111 l 0 1111 l 0 1319 m 347 1319 l 556 1319 l 556 1111 l 347 1111 l 347 1319 z "},"©":{"ha":1597,"x_min":0,"x_max":1389,"o":"m 0 1250 l 69 1250 l 69 1319 l 208 1319 l 208 0 l 69 0 l 69 69 l 0 69 l 0 1250 m 1181 1319 l 1319 1319 l 1319 1250 l 1389 1250 l 1389 69 l 1319 69 l 1319 0 l 1181 0 l 1181 1319 m 278 1319 l 1111 1319 l 1111 1111 l 278 1111 l 278 1319 m 278 208 l 1111 208 l 1111 0 l 278 0 l 278 208 m 347 972 l 417 972 l 417 1042 l 486 1042 l 486 278 l 417 278 l 417 347 l 347 347 l 347 972 m 556 1042 l 833 1042 l 833 903 l 556 903 l 556 1042 m 556 417 l 833 417 l 833 278 l 556 278 l 556 417 m 903 1042 l 972 1042 l 972 972 l 1042 972 l 1042 833 l 903 833 l 903 1042 m 903 486 l 1042 486 l 1042 347 l 972 347 l 972 278 l 903 278 l 903 486 z "},"ª":{"ha":1250,"x_min":0,"x_max":625,"o":"m 486 1319 l 556 1319 l 556 1250 l 625 1250 l 625 625 l 486 625 l 486 1319 m 0 972 l 69 972 l 69 1042 l 139 1042 l 139 625 l 69 625 l 69 694 l 0 694 l 0 972 m 208 1319 l 417 1319 l 417 1181 l 208 1181 l 208 1319 m 208 1042 l 417 1042 l 417 903 l 208 903 l 208 1042 m 208 764 l 417 764 l 417 625 l 208 625 l 208 764 m 0 1319 l 139 1319 l 139 1181 l 0 1181 l 0 1319 z "},"«":{"ha":1250,"x_min":0,"x_max":1042,"o":"m 278 1042 l 347 1042 l 347 1111 l 417 1111 l 417 1181 l 625 1181 l 625 1042 l 556 1042 l 556 972 l 486 972 l 486 903 l 417 903 l 417 833 l 347 833 l 347 764 l 278 764 l 278 1042 m 278 556 l 347 556 l 347 486 l 417 486 l 417 417 l 486 417 l 486 347 l 556 347 l 556 278 l 625 278 l 625 139 l 417 139 l 417 208 l 347 208 l 347 278 l 278 278 l 278 556 m 694 556 l 764 556 l 764 486 l 833 486 l 833 417 l 903 417 l 903 347 l 972 347 l 972 278 l 1042 278 l 1042 139 l 833 139 l 833 208 l 764 208 l 764 278 l 694 278 l 694 556 m 694 1042 l 764 1042 l 764 1111 l 833 1111 l 833 1181 l 1042 1181 l 1042 1042 l 972 1042 l 972 972 l 903 972 l 903 903 l 833 903 l 833 833 l 764 833 l 764 764 l 694 764 l 694 1042 m 0 764 l 69 764 l 69 833 l 139 833 l 139 903 l 208 903 l 208 417 l 139 417 l 139 486 l 69 486 l 69 556 l 0 556 l 0 764 m 417 764 l 486 764 l 486 833 l 556 833 l 556 903 l 625 903 l 625 417 l 556 417 l 556 486 l 486 486 l 486 556 l 417 556 l 417 764 z "},"¬":{"ha":1250,"x_min":0,"x_max":1042,"o":"m 278 1319 l 764 1319 l 764 1111 l 278 1111 l 278 1319 m 833 1319 l 1042 1319 l 1042 903 l 833 903 l 833 1319 m 0 1319 l 208 1319 l 208 1111 l 0 1111 l 0 1319 z "},"­":{"ha":694,"x_min":0,"x_max":486,"o":"m 0 764 l 486 764 l 486 556 l 0 556 l 0 764 z "},"®":{"ha":1597,"x_min":0,"x_max":1389,"o":"m 0 1250 l 69 1250 l 69 1319 l 208 1319 l 208 0 l 69 0 l 69 69 l 0 69 l 0 1250 m 1181 1319 l 1319 1319 l 1319 1250 l 1389 1250 l 1389 69 l 1319 69 l 1319 0 l 1181 0 l 1181 1319 m 278 1319 l 1111 1319 l 1111 1111 l 278 1111 l 278 1319 m 278 208 l 1111 208 l 1111 0 l 278 0 l 278 208 m 556 1042 l 972 1042 l 972 972 l 1042 972 l 1042 625 l 972 625 l 972 556 l 903 556 l 903 903 l 556 903 l 556 1042 m 347 1042 l 486 1042 l 486 278 l 347 278 l 347 1042 m 764 486 l 972 486 l 972 417 l 1042 417 l 1042 278 l 903 278 l 903 347 l 833 347 l 833 417 l 764 417 l 764 486 m 556 694 l 833 694 l 833 556 l 556 556 l 556 694 z "},"°":{"ha":833,"x_min":0,"x_max":625,"o":"m 0 903 l 69 903 l 69 972 l 208 972 l 208 625 l 0 625 l 0 903 m 417 694 l 625 694 l 625 417 l 556 417 l 556 347 l 417 347 l 417 694 m 0 556 l 347 556 l 347 347 l 69 347 l 69 417 l 0 417 l 0 556 m 278 972 l 556 972 l 556 903 l 625 903 l 625 764 l 278 764 l 278 972 z "},"±":{"ha":1250,"x_min":69,"x_max":972,"o":"m 417 1250 l 625 1250 l 625 347 l 417 347 l 417 1250 m 69 903 l 347 903 l 347 694 l 69 694 l 69 903 m 694 903 l 972 903 l 972 694 l 694 694 l 694 903 m 69 208 l 347 208 l 347 0 l 69 0 l 69 208 m 694 208 l 972 208 l 972 0 l 694 0 l 694 208 m 417 208 l 625 208 l 625 0 l 417 0 l 417 208 z "},"²":{"ha":833,"x_min":0,"x_max":625,"o":"m 0 903 l 69 903 l 69 972 l 139 972 l 139 625 l 0 625 l 0 903 m 486 1319 l 556 1319 l 556 1250 l 625 1250 l 625 1042 l 556 1042 l 556 972 l 486 972 l 486 1319 m 208 1042 l 417 1042 l 417 903 l 208 903 l 208 1042 m 208 764 l 417 764 l 417 625 l 208 625 l 208 764 m 208 1319 l 417 1319 l 417 1181 l 208 1181 l 208 1319 m 486 764 l 625 764 l 625 625 l 486 625 l 486 764 m 0 1319 l 139 1319 l 139 1181 l 0 1181 l 0 1319 z "},"³":{"ha":833,"x_min":0,"x_max":625,"o":"m 486 1319 l 556 1319 l 556 1250 l 625 1250 l 625 1042 l 556 1042 l 556 903 l 625 903 l 625 694 l 556 694 l 556 625 l 486 625 l 486 1319 m 208 1319 l 417 1319 l 417 1181 l 208 1181 l 208 1319 m 208 764 l 417 764 l 417 625 l 208 625 l 208 764 m 208 1042 l 417 1042 l 417 903 l 208 903 l 208 1042 m 0 1319 l 139 1319 l 139 1181 l 0 1181 l 0 1319 m 0 764 l 139 764 l 139 625 l 0 625 l 0 764 z "},"´":{"ha":625,"x_min":0,"x_max":417,"o":"m 0 1042 l 69 1042 l 69 1111 l 139 1111 l 139 1181 l 208 1181 l 208 1250 l 278 1250 l 278 1319 l 417 1319 l 417 1111 l 347 1111 l 347 1042 l 278 1042 l 278 972 l 208 972 l 208 903 l 0 903 l 0 1042 z "},"µ":{"ha":1250,"x_min":0,"x_max":1042,"o":"m 0 1319 l 208 1319 l 208 -139 l 0 -139 l 0 1319 m 833 1319 l 1042 1319 l 1042 0 l 833 0 l 833 1319 m 278 556 l 347 556 l 347 486 l 417 486 l 417 417 l 486 417 l 486 347 l 556 347 l 556 417 l 625 417 l 625 486 l 694 486 l 694 556 l 764 556 l 764 278 l 694 278 l 694 208 l 625 208 l 625 139 l 556 139 l 556 69 l 486 69 l 486 139 l 417 139 l 417 208 l 347 208 l 347 278 l 278 278 l 278 556 z "},"¶":{"ha":1458,"x_min":0,"x_max":1250,"o":"m 278 1319 l 486 1319 l 486 0 l 278 0 l 278 1319 m 833 1319 l 1042 1319 l 1042 0 l 833 0 l 833 1319 m 0 1250 l 69 1250 l 69 1319 l 208 1319 l 208 903 l 69 903 l 69 972 l 0 972 l 0 1250 m 556 1319 l 764 1319 l 764 1111 l 556 1111 l 556 1319 m 1111 1319 l 1250 1319 l 1250 1111 l 1111 1111 l 1111 1319 z "},"·":{"ha":417,"x_min":0,"x_max":208,"o":"m 0 764 l 208 764 l 208 556 l 0 556 l 0 764 z "},"¸":{"ha":694,"x_min":0,"x_max":486,"o":"m 278 -69 l 486 -69 l 486 -347 l 417 -347 l 417 -417 l 278 -417 l 278 -69 m 0 -208 l 208 -208 l 208 -417 l 0 -417 l 0 -208 z "},"¹":{"ha":764,"x_min":0,"x_max":556,"o":"m 208 1319 l 347 1319 l 347 625 l 208 625 l 208 1319 m 0 764 l 139 764 l 139 625 l 0 625 l 0 764 m 0 1319 l 139 1319 l 139 1181 l 0 1181 l 0 1319 m 417 764 l 556 764 l 556 625 l 417 625 l 417 764 z "},"º":{"ha":833,"x_min":0,"x_max":625,"o":"m 0 1250 l 69 1250 l 69 1319 l 139 1319 l 139 625 l 69 625 l 69 694 l 0 694 l 0 1250 m 486 1319 l 556 1319 l 556 1250 l 625 1250 l 625 694 l 556 694 l 556 625 l 486 625 l 486 1319 m 208 1319 l 417 1319 l 417 1181 l 208 1181 l 208 1319 m 208 764 l 417 764 l 417 625 l 208 625 l 208 764 z "},"»":{"ha":1250,"x_min":0,"x_max":1042,"o":"m 0 1181 l 208 1181 l 208 1111 l 278 1111 l 278 1042 l 347 1042 l 347 764 l 278 764 l 278 833 l 208 833 l 208 903 l 139 903 l 139 972 l 69 972 l 69 1042 l 0 1042 l 0 1181 m 417 1181 l 625 1181 l 625 1111 l 694 1111 l 694 1042 l 764 1042 l 764 764 l 694 764 l 694 833 l 625 833 l 625 903 l 556 903 l 556 972 l 486 972 l 486 1042 l 417 1042 l 417 1181 m 0 278 l 69 278 l 69 347 l 139 347 l 139 417 l 208 417 l 208 486 l 278 486 l 278 556 l 347 556 l 347 278 l 278 278 l 278 208 l 208 208 l 208 139 l 0 139 l 0 278 m 417 278 l 486 278 l 486 347 l 556 347 l 556 417 l 625 417 l 625 486 l 694 486 l 694 556 l 764 556 l 764 278 l 694 278 l 694 208 l 625 208 l 625 139 l 417 139 l 417 278 m 417 903 l 486 903 l 486 833 l 556 833 l 556 764 l 625 764 l 625 556 l 556 556 l 556 486 l 486 486 l 486 417 l 417 417 l 417 903 m 833 903 l 903 903 l 903 833 l 972 833 l 972 764 l 1042 764 l 1042 556 l 972 556 l 972 486 l 903 486 l 903 417 l 833 417 l 833 903 z "},"¼":{"ha":2014,"x_min":0,"x_max":1806,"o":"m 625 556 l 694 556 l 694 625 l 764 625 l 764 694 l 833 694 l 833 764 l 903 764 l 903 833 l 972 833 l 972 903 l 1042 903 l 1042 972 l 1111 972 l 1111 694 l 1042 694 l 1042 625 l 972 625 l 972 556 l 903 556 l 903 486 l 833 486 l 833 417 l 764 417 l 764 347 l 694 347 l 694 278 l 625 278 l 625 556 m 208 1319 l 347 1319 l 347 625 l 208 625 l 208 1319 m 1667 694 l 1806 694 l 1806 0 l 1667 0 l 1667 694 m 1181 1250 l 1389 1250 l 1389 972 l 1319 972 l 1319 903 l 1250 903 l 1250 833 l 1181 833 l 1181 1250 m 347 278 l 417 278 l 417 347 l 486 347 l 486 417 l 556 417 l 556 0 l 347 0 l 347 278 m 1181 694 l 1319 694 l 1319 278 l 1181 278 l 1181 694 m 1389 417 l 1597 417 l 1597 278 l 1389 278 l 1389 417 m 0 1319 l 139 1319 l 139 1181 l 0 1181 l 0 1319 m 0 764 l 139 764 l 139 625 l 0 625 l 0 764 m 417 764 l 556 764 l 556 625 l 417 625 l 417 764 z "},"½":{"ha":2014,"x_min":0,"x_max":1806,"o":"m 625 556 l 694 556 l 694 625 l 764 625 l 764 694 l 833 694 l 833 764 l 903 764 l 903 833 l 972 833 l 972 903 l 1042 903 l 1042 972 l 1111 972 l 1111 694 l 1042 694 l 1042 625 l 972 625 l 972 556 l 903 556 l 903 486 l 833 486 l 833 417 l 764 417 l 764 347 l 694 347 l 694 278 l 625 278 l 625 556 m 208 1319 l 347 1319 l 347 625 l 208 625 l 208 1319 m 1181 1250 l 1389 1250 l 1389 972 l 1319 972 l 1319 903 l 1250 903 l 1250 833 l 1181 833 l 1181 1250 m 347 278 l 417 278 l 417 347 l 486 347 l 486 417 l 556 417 l 556 0 l 347 0 l 347 278 m 1181 278 l 1250 278 l 1250 347 l 1319 347 l 1319 0 l 1181 0 l 1181 278 m 1667 694 l 1736 694 l 1736 625 l 1806 625 l 1806 417 l 1736 417 l 1736 347 l 1667 347 l 1667 694 m 1389 139 l 1597 139 l 1597 0 l 1389 0 l 1389 139 m 1389 694 l 1597 694 l 1597 556 l 1389 556 l 1389 694 m 1389 417 l 1597 417 l 1597 278 l 1389 278 l 1389 417 m 1667 139 l 1806 139 l 1806 0 l 1667 0 l 1667 139 m 1181 694 l 1319 694 l 1319 556 l 1181 556 l 1181 694 m 0 1319 l 139 1319 l 139 1181 l 0 1181 l 0 1319 m 0 764 l 139 764 l 139 625 l 0 625 l 0 764 m 417 764 l 556 764 l 556 625 l 417 625 l 417 764 z "},"¾":{"ha":2014,"x_min":0,"x_max":1806,"o":"m 625 556 l 694 556 l 694 625 l 764 625 l 764 694 l 833 694 l 833 764 l 903 764 l 903 833 l 972 833 l 972 903 l 1042 903 l 1042 972 l 1111 972 l 1111 694 l 1042 694 l 1042 625 l 972 625 l 972 556 l 903 556 l 903 486 l 833 486 l 833 417 l 764 417 l 764 347 l 694 347 l 694 278 l 625 278 l 625 556 m 1667 694 l 1806 694 l 1806 0 l 1667 0 l 1667 694 m 486 1319 l 556 1319 l 556 1250 l 625 1250 l 625 1042 l 556 1042 l 556 903 l 625 903 l 625 694 l 556 694 l 556 625 l 486 625 l 486 1319 m 1181 1250 l 1389 1250 l 1389 972 l 1319 972 l 1319 903 l 1250 903 l 1250 833 l 1181 833 l 1181 1250 m 347 278 l 417 278 l 417 347 l 486 347 l 486 417 l 556 417 l 556 0 l 347 0 l 347 278 m 1181 694 l 1319 694 l 1319 278 l 1181 278 l 1181 694 m 208 1319 l 417 1319 l 417 1181 l 208 1181 l 208 1319 m 208 1042 l 417 1042 l 417 903 l 208 903 l 208 1042 m 208 764 l 417 764 l 417 625 l 208 625 l 208 764 m 1389 417 l 1597 417 l 1597 278 l 1389 278 l 1389 417 m 0 1319 l 139 1319 l 139 1181 l 0 1181 l 0 1319 m 0 764 l 139 764 l 139 625 l 0 625 l 0 764 z "},"¿":{"ha":1250,"x_min":0,"x_max":1042,"o":"m 0 694 l 69 694 l 69 764 l 208 764 l 208 0 l 69 0 l 69 69 l 0 69 l 0 694 m 278 764 l 417 764 l 417 1042 l 625 1042 l 625 625 l 556 625 l 556 556 l 278 556 l 278 764 m 278 208 l 764 208 l 764 0 l 278 0 l 278 208 m 833 417 l 1042 417 l 1042 69 l 972 69 l 972 0 l 833 0 l 833 417 m 417 1319 l 625 1319 l 625 1111 l 417 1111 l 417 1319 z "},"À":{"ha":1250,"x_min":0,"x_max":1042,"o":"m 0 1250 l 69 1250 l 69 1319 l 208 1319 l 208 0 l 0 0 l 0 1250 m 833 1319 l 972 1319 l 972 1250 l 1042 1250 l 1042 0 l 833 0 l 833 1319 m 278 1319 l 764 1319 l 764 1111 l 278 1111 l 278 1319 m 278 764 l 764 764 l 764 556 l 278 556 l 278 764 m 208 1667 l 417 1667 l 417 1597 l 486 1597 l 486 1528 l 556 1528 l 556 1458 l 625 1458 l 625 1389 l 417 1389 l 417 1458 l 347 1458 l 347 1528 l 278 1528 l 278 1597 l 208 1597 l 208 1667 z "},"Á":{"ha":1250,"x_min":0,"x_max":1042,"o":"m 0 1250 l 69 1250 l 69 1319 l 208 1319 l 208 0 l 0 0 l 0 1250 m 833 1319 l 972 1319 l 972 1250 l 1042 1250 l 1042 0 l 833 0 l 833 1319 m 278 1319 l 764 1319 l 764 1111 l 278 1111 l 278 1319 m 278 764 l 764 764 l 764 556 l 278 556 l 278 764 m 417 1458 l 486 1458 l 486 1528 l 556 1528 l 556 1597 l 625 1597 l 625 1667 l 833 1667 l 833 1597 l 764 1597 l 764 1528 l 694 1528 l 694 1458 l 625 1458 l 625 1389 l 417 1389 l 417 1458 z "},"Â":{"ha":1250,"x_min":0,"x_max":1042,"o":"m 0 1250 l 69 1250 l 69 1319 l 208 1319 l 208 0 l 0 0 l 0 1250 m 833 1319 l 972 1319 l 972 1250 l 1042 1250 l 1042 0 l 833 0 l 833 1319 m 278 1319 l 764 1319 l 764 1111 l 278 1111 l 278 1319 m 278 764 l 764 764 l 764 556 l 278 556 l 278 764 m 208 1528 l 278 1528 l 278 1597 l 347 1597 l 347 1667 l 486 1667 l 486 1528 l 417 1528 l 417 1458 l 347 1458 l 347 1389 l 208 1389 l 208 1528 m 556 1667 l 694 1667 l 694 1597 l 764 1597 l 764 1528 l 833 1528 l 833 1389 l 694 1389 l 694 1458 l 625 1458 l 625 1528 l 556 1528 l 556 1667 z "},"Ã":{"ha":1250,"x_min":0,"x_max":1042,"o":"m 0 1250 l 69 1250 l 69 1319 l 208 1319 l 208 0 l 0 0 l 0 1250 m 833 1319 l 972 1319 l 972 1250 l 1042 1250 l 1042 0 l 833 0 l 833 1319 m 278 1319 l 764 1319 l 764 1111 l 278 1111 l 278 1319 m 278 764 l 764 764 l 764 556 l 278 556 l 278 764 m 764 1528 l 833 1528 l 833 1597 l 903 1597 l 903 1667 l 1042 1667 l 1042 1528 l 972 1528 l 972 1458 l 903 1458 l 903 1389 l 764 1389 l 764 1528 m 69 1528 l 139 1528 l 139 1597 l 208 1597 l 208 1667 l 347 1667 l 347 1528 l 278 1528 l 278 1458 l 208 1458 l 208 1389 l 69 1389 l 69 1528 m 417 1667 l 556 1667 l 556 1597 l 625 1597 l 625 1528 l 694 1528 l 694 1389 l 556 1389 l 556 1458 l 486 1458 l 486 1528 l 417 1528 l 417 1667 z "},"Ä":{"ha":1250,"x_min":0,"x_max":1042,"o":"m 0 1250 l 69 1250 l 69 1319 l 208 1319 l 208 0 l 0 0 l 0 1250 m 833 1319 l 972 1319 l 972 1250 l 1042 1250 l 1042 0 l 833 0 l 833 1319 m 278 1319 l 764 1319 l 764 1111 l 278 1111 l 278 1319 m 278 764 l 764 764 l 764 556 l 278 556 l 278 764 m 208 1667 l 417 1667 l 417 1458 l 208 1458 l 208 1667 m 625 1667 l 833 1667 l 833 1458 l 625 1458 l 625 1667 z "},"Å":{"ha":1250,"x_min":0,"x_max":1042,"o":"m 0 1250 l 69 1250 l 69 1319 l 208 1319 l 208 0 l 0 0 l 0 1250 m 833 1319 l 972 1319 l 972 1250 l 1042 1250 l 1042 0 l 833 0 l 833 1319 m 278 1319 l 764 1319 l 764 1111 l 278 1111 l 278 1319 m 278 764 l 764 764 l 764 556 l 278 556 l 278 764 m 208 1597 l 278 1597 l 278 1667 l 347 1667 l 347 1389 l 208 1389 l 208 1597 m 694 1667 l 764 1667 l 764 1597 l 833 1597 l 833 1389 l 694 1389 l 694 1667 m 417 1667 l 625 1667 l 625 1528 l 417 1528 l 417 1667 z "},"Æ":{"ha":1806,"x_min":0,"x_max":1597,"o":"m 694 1319 l 903 1319 l 903 0 l 694 0 l 694 1319 m 0 1250 l 69 1250 l 69 1319 l 208 1319 l 208 0 l 0 0 l 0 1250 m 972 1319 l 1319 1319 l 1319 1111 l 972 1111 l 972 1319 m 278 1319 l 625 1319 l 625 1111 l 278 1111 l 278 1319 m 972 208 l 1319 208 l 1319 0 l 972 0 l 972 208 m 278 764 l 625 764 l 625 556 l 278 556 l 278 764 m 972 764 l 1319 764 l 1319 556 l 972 556 l 972 764 m 1389 1319 l 1597 1319 l 1597 1111 l 1389 1111 l 1389 1319 m 1389 208 l 1597 208 l 1597 0 l 1389 0 l 1389 208 z "},"Ç":{"ha":1250,"x_min":0,"x_max":1042,"o":"m 0 1250 l 69 1250 l 69 1319 l 208 1319 l 208 0 l 69 0 l 69 69 l 0 69 l 0 1250 m 278 1319 l 764 1319 l 764 1111 l 278 1111 l 278 1319 m 278 208 l 764 208 l 764 0 l 278 0 l 278 208 m 556 -69 l 764 -69 l 764 -347 l 694 -347 l 694 -417 l 556 -417 l 556 -69 m 278 -208 l 486 -208 l 486 -417 l 278 -417 l 278 -208 m 833 208 l 1042 208 l 1042 0 l 833 0 l 833 208 m 833 1319 l 1042 1319 l 1042 1111 l 833 1111 l 833 1319 z "},"È":{"ha":1250,"x_min":0,"x_max":1042,"o":"m 0 1319 l 208 1319 l 208 0 l 0 0 l 0 1319 m 278 1319 l 1042 1319 l 1042 1111 l 278 1111 l 278 1319 m 278 208 l 1042 208 l 1042 0 l 278 0 l 278 208 m 278 764 l 764 764 l 764 556 l 278 556 l 278 764 m 208 1667 l 417 1667 l 417 1597 l 486 1597 l 486 1528 l 556 1528 l 556 1458 l 625 1458 l 625 1389 l 417 1389 l 417 1458 l 347 1458 l 347 1528 l 278 1528 l 278 1597 l 208 1597 l 208 1667 z "},"É":{"ha":1250,"x_min":0,"x_max":1042,"o":"m 0 1319 l 208 1319 l 208 0 l 0 0 l 0 1319 m 278 1319 l 1042 1319 l 1042 1111 l 278 1111 l 278 1319 m 278 208 l 1042 208 l 1042 0 l 278 0 l 278 208 m 278 764 l 764 764 l 764 556 l 278 556 l 278 764 m 417 1458 l 486 1458 l 486 1528 l 556 1528 l 556 1597 l 625 1597 l 625 1667 l 833 1667 l 833 1597 l 764 1597 l 764 1528 l 694 1528 l 694 1458 l 625 1458 l 625 1389 l 417 1389 l 417 1458 z "},"Ê":{"ha":1250,"x_min":0,"x_max":1042,"o":"m 0 1319 l 208 1319 l 208 0 l 0 0 l 0 1319 m 278 208 l 1042 208 l 1042 0 l 278 0 l 278 208 m 278 1319 l 1042 1319 l 1042 1111 l 278 1111 l 278 1319 m 278 764 l 764 764 l 764 556 l 278 556 l 278 764 m 208 1528 l 278 1528 l 278 1597 l 347 1597 l 347 1667 l 486 1667 l 486 1528 l 417 1528 l 417 1458 l 347 1458 l 347 1389 l 208 1389 l 208 1528 m 556 1667 l 694 1667 l 694 1597 l 764 1597 l 764 1528 l 833 1528 l 833 1389 l 694 1389 l 694 1458 l 625 1458 l 625 1528 l 556 1528 l 556 1667 z "},"Ë":{"ha":1250,"x_min":0,"x_max":1042,"o":"m 0 1319 l 208 1319 l 208 0 l 0 0 l 0 1319 m 278 208 l 1042 208 l 1042 0 l 278 0 l 278 208 m 278 1319 l 1042 1319 l 1042 1111 l 278 1111 l 278 1319 m 278 764 l 764 764 l 764 556 l 278 556 l 278 764 m 208 1667 l 417 1667 l 417 1458 l 208 1458 l 208 1667 m 625 1667 l 833 1667 l 833 1458 l 625 1458 l 625 1667 z "},"Ì":{"ha":1250,"x_min":0,"x_max":1042,"o":"m 417 1319 l 625 1319 l 625 0 l 417 0 l 417 1319 m 0 1319 l 347 1319 l 347 1111 l 0 1111 l 0 1319 m 694 1319 l 1042 1319 l 1042 1111 l 694 1111 l 694 1319 m 0 208 l 347 208 l 347 0 l 0 0 l 0 208 m 694 208 l 1042 208 l 1042 0 l 694 0 l 694 208 m 208 1667 l 417 1667 l 417 1597 l 486 1597 l 486 1528 l 556 1528 l 556 1458 l 625 1458 l 625 1389 l 417 1389 l 417 1458 l 347 1458 l 347 1528 l 278 1528 l 278 1597 l 208 1597 l 208 1667 z "},"Í":{"ha":1250,"x_min":0,"x_max":1042,"o":"m 417 1319 l 625 1319 l 625 0 l 417 0 l 417 1319 m 0 1319 l 347 1319 l 347 1111 l 0 1111 l 0 1319 m 694 1319 l 1042 1319 l 1042 1111 l 694 1111 l 694 1319 m 0 208 l 347 208 l 347 0 l 0 0 l 0 208 m 694 208 l 1042 208 l 1042 0 l 694 0 l 694 208 m 417 1458 l 486 1458 l 486 1528 l 556 1528 l 556 1597 l 625 1597 l 625 1667 l 833 1667 l 833 1597 l 764 1597 l 764 1528 l 694 1528 l 694 1458 l 625 1458 l 625 1389 l 417 1389 l 417 1458 z "},"Î":{"ha":1250,"x_min":0,"x_max":1042,"o":"m 417 1319 l 625 1319 l 625 0 l 417 0 l 417 1319 m 694 1319 l 1042 1319 l 1042 1111 l 694 1111 l 694 1319 m 694 208 l 1042 208 l 1042 0 l 694 0 l 694 208 m 0 1319 l 347 1319 l 347 1111 l 0 1111 l 0 1319 m 0 208 l 347 208 l 347 0 l 0 0 l 0 208 m 556 1667 l 694 1667 l 694 1597 l 764 1597 l 764 1528 l 833 1528 l 833 1389 l 694 1389 l 694 1458 l 625 1458 l 625 1528 l 556 1528 l 556 1667 m 208 1528 l 278 1528 l 278 1597 l 347 1597 l 347 1667 l 486 1667 l 486 1528 l 417 1528 l 417 1458 l 347 1458 l 347 1389 l 208 1389 l 208 1528 z "},"Ï":{"ha":1250,"x_min":0,"x_max":1042,"o":"m 417 1319 l 625 1319 l 625 0 l 417 0 l 417 1319 m 694 1319 l 1042 1319 l 1042 1111 l 694 1111 l 694 1319 m 0 1319 l 347 1319 l 347 1111 l 0 1111 l 0 1319 m 0 208 l 347 208 l 347 0 l 0 0 l 0 208 m 694 208 l 1042 208 l 1042 0 l 694 0 l 694 208 m 208 1667 l 417 1667 l 417 1458 l 208 1458 l 208 1667 m 625 1667 l 833 1667 l 833 1458 l 625 1458 l 625 1667 z "},"Ð":{"ha":1458,"x_min":0,"x_max":1250,"o":"m 208 1319 l 417 1319 l 417 0 l 208 0 l 208 1319 m 1042 1319 l 1111 1319 l 1111 1250 l 1181 1250 l 1181 1181 l 1250 1181 l 1250 139 l 1181 139 l 1181 69 l 1111 69 l 1111 0 l 1042 0 l 1042 1319 m 486 208 l 972 208 l 972 0 l 486 0 l 486 208 m 486 1319 l 972 1319 l 972 1111 l 486 1111 l 486 1319 m 486 764 l 764 764 l 764 556 l 486 556 l 486 764 m 0 764 l 139 764 l 139 556 l 0 556 l 0 764 z "},"Ñ":{"ha":1250,"x_min":0,"x_max":1042,"o":"m 0 1319 l 208 1319 l 208 0 l 0 0 l 0 1319 m 833 1319 l 1042 1319 l 1042 0 l 833 0 l 833 1319 m 278 972 l 347 972 l 347 903 l 417 903 l 417 833 l 486 833 l 486 764 l 556 764 l 556 694 l 625 694 l 625 625 l 694 625 l 694 556 l 764 556 l 764 278 l 694 278 l 694 347 l 625 347 l 625 417 l 556 417 l 556 486 l 486 486 l 486 556 l 417 556 l 417 625 l 347 625 l 347 694 l 278 694 l 278 972 m 69 1528 l 139 1528 l 139 1597 l 208 1597 l 208 1667 l 347 1667 l 347 1528 l 278 1528 l 278 1458 l 208 1458 l 208 1389 l 69 1389 l 69 1528 m 764 1528 l 833 1528 l 833 1597 l 903 1597 l 903 1667 l 1042 1667 l 1042 1528 l 972 1528 l 972 1458 l 903 1458 l 903 1389 l 764 1389 l 764 1528 m 417 1667 l 556 1667 l 556 1597 l 625 1597 l 625 1528 l 694 1528 l 694 1389 l 556 1389 l 556 1458 l 486 1458 l 486 1528 l 417 1528 l 417 1667 z "},"Ò":{"ha":1250,"x_min":0,"x_max":1042,"o":"m 0 1250 l 69 1250 l 69 1319 l 208 1319 l 208 0 l 69 0 l 69 69 l 0 69 l 0 1250 m 833 1319 l 972 1319 l 972 1250 l 1042 1250 l 1042 69 l 972 69 l 972 0 l 833 0 l 833 1319 m 278 1319 l 764 1319 l 764 1111 l 278 1111 l 278 1319 m 278 208 l 764 208 l 764 0 l 278 0 l 278 208 m 208 1667 l 417 1667 l 417 1597 l 486 1597 l 486 1528 l 556 1528 l 556 1458 l 625 1458 l 625 1389 l 417 1389 l 417 1458 l 347 1458 l 347 1528 l 278 1528 l 278 1597 l 208 1597 l 208 1667 z "},"Ó":{"ha":1250,"x_min":0,"x_max":1042,"o":"m 0 1250 l 69 1250 l 69 1319 l 208 1319 l 208 0 l 69 0 l 69 69 l 0 69 l 0 1250 m 833 1319 l 972 1319 l 972 1250 l 1042 1250 l 1042 69 l 972 69 l 972 0 l 833 0 l 833 1319 m 278 1319 l 764 1319 l 764 1111 l 278 1111 l 278 1319 m 278 208 l 764 208 l 764 0 l 278 0 l 278 208 m 417 1458 l 486 1458 l 486 1528 l 556 1528 l 556 1597 l 625 1597 l 625 1667 l 833 1667 l 833 1597 l 764 1597 l 764 1528 l 694 1528 l 694 1458 l 625 1458 l 625 1389 l 417 1389 l 417 1458 z "},"Ô":{"ha":1250,"x_min":0,"x_max":1042,"o":"m 0 1250 l 69 1250 l 69 1319 l 208 1319 l 208 0 l 69 0 l 69 69 l 0 69 l 0 1250 m 833 1319 l 972 1319 l 972 1250 l 1042 1250 l 1042 69 l 972 69 l 972 0 l 833 0 l 833 1319 m 278 208 l 764 208 l 764 0 l 278 0 l 278 208 m 278 1319 l 764 1319 l 764 1111 l 278 1111 l 278 1319 m 208 1528 l 278 1528 l 278 1597 l 347 1597 l 347 1667 l 486 1667 l 486 1528 l 417 1528 l 417 1458 l 347 1458 l 347 1389 l 208 1389 l 208 1528 m 556 1667 l 694 1667 l 694 1597 l 764 1597 l 764 1528 l 833 1528 l 833 1389 l 694 1389 l 694 1458 l 625 1458 l 625 1528 l 556 1528 l 556 1667 z "},"Õ":{"ha":1250,"x_min":0,"x_max":1042,"o":"m 0 1250 l 69 1250 l 69 1319 l 208 1319 l 208 0 l 69 0 l 69 69 l 0 69 l 0 1250 m 833 1319 l 972 1319 l 972 1250 l 1042 1250 l 1042 69 l 972 69 l 972 0 l 833 0 l 833 1319 m 278 1319 l 764 1319 l 764 1111 l 278 1111 l 278 1319 m 278 208 l 764 208 l 764 0 l 278 0 l 278 208 m 69 1528 l 139 1528 l 139 1597 l 208 1597 l 208 1667 l 347 1667 l 347 1528 l 278 1528 l 278 1458 l 208 1458 l 208 1389 l 69 1389 l 69 1528 m 764 1528 l 833 1528 l 833 1597 l 903 1597 l 903 1667 l 1042 1667 l 1042 1528 l 972 1528 l 972 1458 l 903 1458 l 903 1389 l 764 1389 l 764 1528 m 417 1667 l 556 1667 l 556 1597 l 625 1597 l 625 1528 l 694 1528 l 694 1389 l 556 1389 l 556 1458 l 486 1458 l 486 1528 l 417 1528 l 417 1667 z "},"Ö":{"ha":1250,"x_min":0,"x_max":1042,"o":"m 0 1250 l 69 1250 l 69 1319 l 208 1319 l 208 0 l 69 0 l 69 69 l 0 69 l 0 1250 m 833 1319 l 972 1319 l 972 1250 l 1042 1250 l 1042 69 l 972 69 l 972 0 l 833 0 l 833 1319 m 278 208 l 764 208 l 764 0 l 278 0 l 278 208 m 278 1319 l 764 1319 l 764 1111 l 278 1111 l 278 1319 m 208 1667 l 417 1667 l 417 1458 l 208 1458 l 208 1667 m 625 1667 l 833 1667 l 833 1458 l 625 1458 l 625 1667 z "},"×":{"ha":972,"x_min":0,"x_max":764,"o":"m 0 1042 l 208 1042 l 208 972 l 278 972 l 278 903 l 347 903 l 347 694 l 139 694 l 139 764 l 69 764 l 69 833 l 0 833 l 0 1042 m 417 903 l 486 903 l 486 972 l 556 972 l 556 1042 l 764 1042 l 764 833 l 694 833 l 694 764 l 625 764 l 625 694 l 417 694 l 417 903 m 0 486 l 69 486 l 69 556 l 139 556 l 139 625 l 347 625 l 347 417 l 278 417 l 278 347 l 208 347 l 208 278 l 0 278 l 0 486 m 417 625 l 625 625 l 625 556 l 694 556 l 694 486 l 764 486 l 764 278 l 556 278 l 556 347 l 486 347 l 486 417 l 417 417 l 417 625 z "},"Ø":{"ha":1250,"x_min":0,"x_max":1042,"o":"m 0 1250 l 69 1250 l 69 1319 l 208 1319 l 208 0 l 69 0 l 69 69 l 0 69 l 0 1250 m 833 1319 l 972 1319 l 972 1250 l 1042 1250 l 1042 69 l 972 69 l 972 0 l 833 0 l 833 1319 m 278 556 l 347 556 l 347 625 l 417 625 l 417 694 l 486 694 l 486 764 l 556 764 l 556 833 l 625 833 l 625 903 l 694 903 l 694 972 l 764 972 l 764 764 l 694 764 l 694 694 l 625 694 l 625 625 l 556 625 l 556 556 l 486 556 l 486 486 l 417 486 l 417 417 l 347 417 l 347 347 l 278 347 l 278 556 m 278 208 l 764 208 l 764 0 l 278 0 l 278 208 m 278 1319 l 764 1319 l 764 1111 l 278 1111 l 278 1319 z "},"Ù":{"ha":1250,"x_min":0,"x_max":1042,"o":"m 0 1319 l 208 1319 l 208 0 l 69 0 l 69 69 l 0 69 l 0 1319 m 833 1319 l 1042 1319 l 1042 69 l 972 69 l 972 0 l 833 0 l 833 1319 m 278 208 l 764 208 l 764 0 l 278 0 l 278 208 m 208 1667 l 417 1667 l 417 1597 l 486 1597 l 486 1528 l 556 1528 l 556 1458 l 625 1458 l 625 1389 l 417 1389 l 417 1458 l 347 1458 l 347 1528 l 278 1528 l 278 1597 l 208 1597 l 208 1667 z "},"Ú":{"ha":1250,"x_min":0,"x_max":1042,"o":"m 0 1319 l 208 1319 l 208 0 l 69 0 l 69 69 l 0 69 l 0 1319 m 833 1319 l 1042 1319 l 1042 69 l 972 69 l 972 0 l 833 0 l 833 1319 m 278 208 l 764 208 l 764 0 l 278 0 l 278 208 m 417 1458 l 486 1458 l 486 1528 l 556 1528 l 556 1597 l 625 1597 l 625 1667 l 833 1667 l 833 1597 l 764 1597 l 764 1528 l 694 1528 l 694 1458 l 625 1458 l 625 1389 l 417 1389 l 417 1458 z "},"Û":{"ha":1250,"x_min":0,"x_max":1042,"o":"m 0 1319 l 208 1319 l 208 0 l 69 0 l 69 69 l 0 69 l 0 1319 m 833 1319 l 1042 1319 l 1042 69 l 972 69 l 972 0 l 833 0 l 833 1319 m 278 208 l 764 208 l 764 0 l 278 0 l 278 208 m 208 1528 l 278 1528 l 278 1597 l 347 1597 l 347 1667 l 486 1667 l 486 1528 l 417 1528 l 417 1458 l 347 1458 l 347 1389 l 208 1389 l 208 1528 m 556 1667 l 694 1667 l 694 1597 l 764 1597 l 764 1528 l 833 1528 l 833 1389 l 694 1389 l 694 1458 l 625 1458 l 625 1528 l 556 1528 l 556 1667 z "},"Ü":{"ha":1250,"x_min":0,"x_max":1042,"o":"m 0 1319 l 208 1319 l 208 0 l 69 0 l 69 69 l 0 69 l 0 1319 m 833 1319 l 1042 1319 l 1042 69 l 972 69 l 972 0 l 833 0 l 833 1319 m 278 208 l 764 208 l 764 0 l 278 0 l 278 208 m 208 1667 l 417 1667 l 417 1458 l 208 1458 l 208 1667 m 625 1667 l 833 1667 l 833 1458 l 625 1458 l 625 1667 z "},"Ý":{"ha":1250,"x_min":0,"x_max":1042,"o":"m 278 903 l 347 903 l 347 833 l 417 833 l 417 764 l 486 764 l 486 694 l 556 694 l 556 764 l 625 764 l 625 833 l 694 833 l 694 903 l 764 903 l 764 625 l 694 625 l 694 556 l 625 556 l 625 0 l 417 0 l 417 556 l 347 556 l 347 625 l 278 625 l 278 903 m 0 1319 l 208 1319 l 208 764 l 139 764 l 139 833 l 69 833 l 69 903 l 0 903 l 0 1319 m 833 1319 l 1042 1319 l 1042 903 l 972 903 l 972 833 l 903 833 l 903 764 l 833 764 l 833 1319 m 417 1458 l 486 1458 l 486 1528 l 556 1528 l 556 1597 l 625 1597 l 625 1667 l 833 1667 l 833 1597 l 764 1597 l 764 1528 l 694 1528 l 694 1458 l 625 1458 l 625 1389 l 417 1389 l 417 1458 z "},"Þ":{"ha":1250,"x_min":0,"x_max":1042,"o":"m 0 1319 l 208 1319 l 208 0 l 0 0 l 0 1319 m 833 1111 l 972 1111 l 972 1042 l 1042 1042 l 1042 278 l 972 278 l 972 208 l 833 208 l 833 1111 m 278 1111 l 764 1111 l 764 903 l 278 903 l 278 1111 m 278 417 l 764 417 l 764 208 l 278 208 l 278 417 z "},"ß":{"ha":1250,"x_min":0,"x_max":972,"o":"m 0 1250 l 69 1250 l 69 1319 l 208 1319 l 208 0 l 0 0 l 0 1250 m 764 1319 l 903 1319 l 903 1250 l 972 1250 l 972 764 l 903 764 l 903 694 l 764 694 l 764 1319 m 764 625 l 903 625 l 903 556 l 972 556 l 972 69 l 903 69 l 903 0 l 764 0 l 764 625 m 278 764 l 694 764 l 694 556 l 278 556 l 278 764 m 278 1319 l 694 1319 l 694 1111 l 278 1111 l 278 1319 m 417 208 l 694 208 l 694 0 l 417 0 l 417 208 z "},"à":{"ha":1250,"x_min":0,"x_max":1042,"o":"m 833 1042 l 972 1042 l 972 972 l 1042 972 l 1042 0 l 833 0 l 833 1042 m 0 556 l 69 556 l 69 625 l 208 625 l 208 0 l 69 0 l 69 69 l 0 69 l 0 556 m 278 625 l 764 625 l 764 417 l 278 417 l 278 625 m 278 208 l 764 208 l 764 0 l 278 0 l 278 208 m 278 1042 l 764 1042 l 764 833 l 278 833 l 278 1042 m 208 1389 l 417 1389 l 417 1319 l 486 1319 l 486 1250 l 556 1250 l 556 1181 l 625 1181 l 625 1111 l 417 1111 l 417 1181 l 347 1181 l 347 1250 l 278 1250 l 278 1319 l 208 1319 l 208 1389 m 0 1042 l 208 1042 l 208 833 l 0 833 l 0 1042 z "},"á":{"ha":1250,"x_min":0,"x_max":1042,"o":"m 833 1042 l 972 1042 l 972 972 l 1042 972 l 1042 0 l 833 0 l 833 1042 m 0 556 l 69 556 l 69 625 l 208 625 l 208 0 l 69 0 l 69 69 l 0 69 l 0 556 m 278 625 l 764 625 l 764 417 l 278 417 l 278 625 m 278 208 l 764 208 l 764 0 l 278 0 l 278 208 m 278 1042 l 764 1042 l 764 833 l 278 833 l 278 1042 m 417 1181 l 486 1181 l 486 1250 l 556 1250 l 556 1319 l 625 1319 l 625 1389 l 833 1389 l 833 1319 l 764 1319 l 764 1250 l 694 1250 l 694 1181 l 625 1181 l 625 1111 l 417 1111 l 417 1181 m 0 1042 l 208 1042 l 208 833 l 0 833 l 0 1042 z "},"â":{"ha":1250,"x_min":0,"x_max":1042,"o":"m 833 1042 l 972 1042 l 972 972 l 1042 972 l 1042 0 l 833 0 l 833 1042 m 0 556 l 69 556 l 69 625 l 208 625 l 208 0 l 69 0 l 69 69 l 0 69 l 0 556 m 278 208 l 764 208 l 764 0 l 278 0 l 278 208 m 278 1042 l 764 1042 l 764 833 l 278 833 l 278 1042 m 278 625 l 764 625 l 764 417 l 278 417 l 278 625 m 208 1250 l 278 1250 l 278 1319 l 347 1319 l 347 1389 l 486 1389 l 486 1250 l 417 1250 l 417 1181 l 347 1181 l 347 1111 l 208 1111 l 208 1250 m 556 1389 l 694 1389 l 694 1319 l 764 1319 l 764 1250 l 833 1250 l 833 1111 l 694 1111 l 694 1181 l 625 1181 l 625 1250 l 556 1250 l 556 1389 m 0 1042 l 208 1042 l 208 833 l 0 833 l 0 1042 z "},"ã":{"ha":1250,"x_min":0,"x_max":1042,"o":"m 833 1042 l 972 1042 l 972 972 l 1042 972 l 1042 0 l 833 0 l 833 1042 m 0 556 l 69 556 l 69 625 l 208 625 l 208 0 l 69 0 l 69 69 l 0 69 l 0 556 m 278 208 l 764 208 l 764 0 l 278 0 l 278 208 m 278 1042 l 764 1042 l 764 833 l 278 833 l 278 1042 m 278 625 l 764 625 l 764 417 l 278 417 l 278 625 m 69 1250 l 139 1250 l 139 1319 l 208 1319 l 208 1389 l 347 1389 l 347 1250 l 278 1250 l 278 1181 l 208 1181 l 208 1111 l 69 1111 l 69 1250 m 764 1250 l 833 1250 l 833 1319 l 903 1319 l 903 1389 l 1042 1389 l 1042 1250 l 972 1250 l 972 1181 l 903 1181 l 903 1111 l 764 1111 l 764 1250 m 417 1389 l 556 1389 l 556 1319 l 625 1319 l 625 1250 l 694 1250 l 694 1111 l 556 1111 l 556 1181 l 486 1181 l 486 1250 l 417 1250 l 417 1389 m 0 1042 l 208 1042 l 208 833 l 0 833 l 0 1042 z "},"ä":{"ha":1250,"x_min":0,"x_max":1042,"o":"m 833 1042 l 972 1042 l 972 972 l 1042 972 l 1042 0 l 833 0 l 833 1042 m 0 556 l 69 556 l 69 625 l 208 625 l 208 0 l 69 0 l 69 69 l 0 69 l 0 556 m 278 1042 l 764 1042 l 764 833 l 278 833 l 278 1042 m 278 208 l 764 208 l 764 0 l 278 0 l 278 208 m 278 625 l 764 625 l 764 417 l 278 417 l 278 625 m 0 1042 l 208 1042 l 208 833 l 0 833 l 0 1042 m 208 1389 l 417 1389 l 417 1181 l 208 1181 l 208 1389 m 625 1389 l 833 1389 l 833 1181 l 625 1181 l 625 1389 z "},"å":{"ha":1250,"x_min":0,"x_max":1042,"o":"m 833 1042 l 972 1042 l 972 972 l 1042 972 l 1042 0 l 833 0 l 833 1042 m 0 556 l 69 556 l 69 625 l 208 625 l 208 0 l 69 0 l 69 69 l 0 69 l 0 556 m 278 1042 l 764 1042 l 764 833 l 278 833 l 278 1042 m 278 208 l 764 208 l 764 0 l 278 0 l 278 208 m 278 625 l 764 625 l 764 417 l 278 417 l 278 625 m 0 1042 l 208 1042 l 208 833 l 0 833 l 0 1042 m 208 1319 l 278 1319 l 278 1389 l 347 1389 l 347 1111 l 208 1111 l 208 1319 m 694 1389 l 764 1389 l 764 1319 l 833 1319 l 833 1111 l 694 1111 l 694 1389 m 417 1389 l 625 1389 l 625 1250 l 417 1250 l 417 1389 z "},"æ":{"ha":1806,"x_min":0,"x_max":1597,"o":"m 694 1042 l 903 1042 l 903 0 l 694 0 l 694 1042 m 1389 1042 l 1528 1042 l 1528 972 l 1597 972 l 1597 486 l 1528 486 l 1528 417 l 1389 417 l 1389 1042 m 0 556 l 69 556 l 69 625 l 208 625 l 208 0 l 69 0 l 69 69 l 0 69 l 0 556 m 972 1042 l 1319 1042 l 1319 833 l 972 833 l 972 1042 m 278 625 l 625 625 l 625 417 l 278 417 l 278 625 m 278 208 l 625 208 l 625 0 l 278 0 l 278 208 m 278 1042 l 625 1042 l 625 833 l 278 833 l 278 1042 m 972 625 l 1319 625 l 1319 417 l 972 417 l 972 625 m 972 208 l 1319 208 l 1319 0 l 972 0 l 972 208 m 1389 208 l 1597 208 l 1597 0 l 1389 0 l 1389 208 m 0 1042 l 208 1042 l 208 833 l 0 833 l 0 1042 z "},"ç":{"ha":1250,"x_min":0,"x_max":1042,"o":"m 0 972 l 69 972 l 69 1042 l 208 1042 l 208 0 l 69 0 l 69 69 l 0 69 l 0 972 m 278 208 l 764 208 l 764 0 l 278 0 l 278 208 m 278 1042 l 764 1042 l 764 833 l 278 833 l 278 1042 m 556 -69 l 764 -69 l 764 -347 l 694 -347 l 694 -417 l 556 -417 l 556 -69 m 278 -208 l 486 -208 l 486 -417 l 278 -417 l 278 -208 m 833 208 l 1042 208 l 1042 0 l 833 0 l 833 208 m 833 1042 l 1042 1042 l 1042 833 l 833 833 l 833 1042 z "},"è":{"ha":1250,"x_min":0,"x_max":1042,"o":"m 0 972 l 69 972 l 69 1042 l 208 1042 l 208 0 l 69 0 l 69 69 l 0 69 l 0 972 m 833 1042 l 972 1042 l 972 972 l 1042 972 l 1042 486 l 972 486 l 972 417 l 833 417 l 833 1042 m 278 1042 l 764 1042 l 764 833 l 278 833 l 278 1042 m 278 208 l 764 208 l 764 0 l 278 0 l 278 208 m 278 625 l 764 625 l 764 417 l 278 417 l 278 625 m 208 1389 l 417 1389 l 417 1319 l 486 1319 l 486 1250 l 556 1250 l 556 1181 l 625 1181 l 625 1111 l 417 1111 l 417 1181 l 347 1181 l 347 1250 l 278 1250 l 278 1319 l 208 1319 l 208 1389 m 833 208 l 1042 208 l 1042 0 l 833 0 l 833 208 z "},"é":{"ha":1250,"x_min":0,"x_max":1042,"o":"m 0 972 l 69 972 l 69 1042 l 208 1042 l 208 0 l 69 0 l 69 69 l 0 69 l 0 972 m 833 1042 l 972 1042 l 972 972 l 1042 972 l 1042 486 l 972 486 l 972 417 l 833 417 l 833 1042 m 278 1042 l 764 1042 l 764 833 l 278 833 l 278 1042 m 278 208 l 764 208 l 764 0 l 278 0 l 278 208 m 278 625 l 764 625 l 764 417 l 278 417 l 278 625 m 417 1181 l 486 1181 l 486 1250 l 556 1250 l 556 1319 l 625 1319 l 625 1389 l 833 1389 l 833 1319 l 764 1319 l 764 1250 l 694 1250 l 694 1181 l 625 1181 l 625 1111 l 417 1111 l 417 1181 m 833 208 l 1042 208 l 1042 0 l 833 0 l 833 208 z "},"ê":{"ha":1250,"x_min":0,"x_max":1042,"o":"m 0 972 l 69 972 l 69 1042 l 208 1042 l 208 0 l 69 0 l 69 69 l 0 69 l 0 972 m 833 1042 l 972 1042 l 972 972 l 1042 972 l 1042 486 l 972 486 l 972 417 l 833 417 l 833 1042 m 278 208 l 764 208 l 764 0 l 278 0 l 278 208 m 278 1042 l 764 1042 l 764 833 l 278 833 l 278 1042 m 278 625 l 764 625 l 764 417 l 278 417 l 278 625 m 208 1250 l 278 1250 l 278 1319 l 347 1319 l 347 1389 l 486 1389 l 486 1250 l 417 1250 l 417 1181 l 347 1181 l 347 1111 l 208 1111 l 208 1250 m 556 1389 l 694 1389 l 694 1319 l 764 1319 l 764 1250 l 833 1250 l 833 1111 l 694 1111 l 694 1181 l 625 1181 l 625 1250 l 556 1250 l 556 1389 m 833 208 l 1042 208 l 1042 0 l 833 0 l 833 208 z "},"ë":{"ha":1250,"x_min":0,"x_max":1042,"o":"m 0 972 l 69 972 l 69 1042 l 208 1042 l 208 0 l 69 0 l 69 69 l 0 69 l 0 972 m 833 1042 l 972 1042 l 972 972 l 1042 972 l 1042 486 l 972 486 l 972 417 l 833 417 l 833 1042 m 278 208 l 764 208 l 764 0 l 278 0 l 278 208 m 278 625 l 764 625 l 764 417 l 278 417 l 278 625 m 278 1042 l 764 1042 l 764 833 l 278 833 l 278 1042 m 833 208 l 1042 208 l 1042 0 l 833 0 l 833 208 m 208 1389 l 417 1389 l 417 1181 l 208 1181 l 208 1389 m 625 1389 l 833 1389 l 833 1181 l 625 1181 l 625 1389 z "},"ì":{"ha":972,"x_min":0,"x_max":764,"o":"m 278 1042 l 486 1042 l 486 0 l 278 0 l 278 1042 m 69 1389 l 278 1389 l 278 1319 l 347 1319 l 347 1250 l 417 1250 l 417 1181 l 486 1181 l 486 1111 l 278 1111 l 278 1181 l 208 1181 l 208 1250 l 139 1250 l 139 1319 l 69 1319 l 69 1389 m 0 1042 l 208 1042 l 208 833 l 0 833 l 0 1042 m 0 208 l 208 208 l 208 0 l 0 0 l 0 208 m 556 208 l 764 208 l 764 0 l 556 0 l 556 208 m 556 1042 l 764 1042 l 764 833 l 556 833 l 556 1042 z "},"í":{"ha":972,"x_min":0,"x_max":764,"o":"m 278 1042 l 486 1042 l 486 0 l 278 0 l 278 1042 m 278 1181 l 347 1181 l 347 1250 l 417 1250 l 417 1319 l 486 1319 l 486 1389 l 694 1389 l 694 1319 l 625 1319 l 625 1250 l 556 1250 l 556 1181 l 486 1181 l 486 1111 l 278 1111 l 278 1181 m 0 1042 l 208 1042 l 208 833 l 0 833 l 0 1042 m 0 208 l 208 208 l 208 0 l 0 0 l 0 208 m 556 208 l 764 208 l 764 0 l 556 0 l 556 208 m 556 1042 l 764 1042 l 764 833 l 556 833 l 556 1042 z "},"î":{"ha":972,"x_min":0,"x_max":764,"o":"m 278 1042 l 486 1042 l 486 0 l 278 0 l 278 1042 m 69 1250 l 139 1250 l 139 1319 l 208 1319 l 208 1389 l 347 1389 l 347 1250 l 278 1250 l 278 1181 l 208 1181 l 208 1111 l 69 1111 l 69 1250 m 417 1389 l 556 1389 l 556 1319 l 625 1319 l 625 1250 l 694 1250 l 694 1111 l 556 1111 l 556 1181 l 486 1181 l 486 1250 l 417 1250 l 417 1389 m 556 1042 l 764 1042 l 764 833 l 556 833 l 556 1042 m 0 208 l 208 208 l 208 0 l 0 0 l 0 208 m 0 1042 l 208 1042 l 208 833 l 0 833 l 0 1042 m 556 208 l 764 208 l 764 0 l 556 0 l 556 208 z "},"ï":{"ha":972,"x_min":0,"x_max":764,"o":"m 278 1042 l 486 1042 l 486 0 l 278 0 l 278 1042 m 0 1042 l 208 1042 l 208 833 l 0 833 l 0 1042 m 0 208 l 208 208 l 208 0 l 0 0 l 0 208 m 556 208 l 764 208 l 764 0 l 556 0 l 556 208 m 69 1389 l 278 1389 l 278 1181 l 69 1181 l 69 1389 m 486 1389 l 694 1389 l 694 1181 l 486 1181 l 486 1389 m 556 1042 l 764 1042 l 764 833 l 556 833 l 556 1042 z "},"ð":{"ha":1250,"x_min":0,"x_max":1042,"o":"m 833 1319 l 903 1319 l 903 1250 l 972 1250 l 972 1181 l 1042 1181 l 1042 69 l 972 69 l 972 0 l 833 0 l 833 1319 m 0 972 l 69 972 l 69 1042 l 208 1042 l 208 0 l 69 0 l 69 69 l 0 69 l 0 972 m 278 1042 l 764 1042 l 764 833 l 278 833 l 278 1042 m 278 208 l 764 208 l 764 0 l 278 0 l 278 208 m 417 1319 l 764 1319 l 764 1111 l 417 1111 l 417 1319 z "},"ñ":{"ha":1250,"x_min":0,"x_max":1042,"o":"m 0 1042 l 208 1042 l 208 0 l 0 0 l 0 1042 m 833 1042 l 972 1042 l 972 972 l 1042 972 l 1042 0 l 833 0 l 833 1042 m 278 1042 l 764 1042 l 764 833 l 278 833 l 278 1042 m 69 1250 l 139 1250 l 139 1319 l 208 1319 l 208 1389 l 347 1389 l 347 1250 l 278 1250 l 278 1181 l 208 1181 l 208 1111 l 69 1111 l 69 1250 m 764 1250 l 833 1250 l 833 1319 l 903 1319 l 903 1389 l 1042 1389 l 1042 1250 l 972 1250 l 972 1181 l 903 1181 l 903 1111 l 764 1111 l 764 1250 m 417 1389 l 556 1389 l 556 1319 l 625 1319 l 625 1250 l 694 1250 l 694 1111 l 556 1111 l 556 1181 l 486 1181 l 486 1250 l 417 1250 l 417 1389 z "},"ò":{"ha":1250,"x_min":0,"x_max":1042,"o":"m 0 972 l 69 972 l 69 1042 l 208 1042 l 208 0 l 69 0 l 69 69 l 0 69 l 0 972 m 833 1042 l 972 1042 l 972 972 l 1042 972 l 1042 69 l 972 69 l 972 0 l 833 0 l 833 1042 m 278 1042 l 764 1042 l 764 833 l 278 833 l 278 1042 m 278 208 l 764 208 l 764 0 l 278 0 l 278 208 m 208 1389 l 417 1389 l 417 1319 l 486 1319 l 486 1250 l 556 1250 l 556 1181 l 625 1181 l 625 1111 l 417 1111 l 417 1181 l 347 1181 l 347 1250 l 278 1250 l 278 1319 l 208 1319 l 208 1389 z "},"ó":{"ha":1250,"x_min":0,"x_max":1042,"o":"m 0 972 l 69 972 l 69 1042 l 208 1042 l 208 0 l 69 0 l 69 69 l 0 69 l 0 972 m 833 1042 l 972 1042 l 972 972 l 1042 972 l 1042 69 l 972 69 l 972 0 l 833 0 l 833 1042 m 278 1042 l 764 1042 l 764 833 l 278 833 l 278 1042 m 278 208 l 764 208 l 764 0 l 278 0 l 278 208 m 417 1181 l 486 1181 l 486 1250 l 556 1250 l 556 1319 l 625 1319 l 625 1389 l 833 1389 l 833 1319 l 764 1319 l 764 1250 l 694 1250 l 694 1181 l 625 1181 l 625 1111 l 417 1111 l 417 1181 z "},"ô":{"ha":1250,"x_min":0,"x_max":1042,"o":"m 0 972 l 69 972 l 69 1042 l 208 1042 l 208 0 l 69 0 l 69 69 l 0 69 l 0 972 m 833 1042 l 972 1042 l 972 972 l 1042 972 l 1042 69 l 972 69 l 972 0 l 833 0 l 833 1042 m 278 208 l 764 208 l 764 0 l 278 0 l 278 208 m 278 1042 l 764 1042 l 764 833 l 278 833 l 278 1042 m 208 1250 l 278 1250 l 278 1319 l 347 1319 l 347 1389 l 486 1389 l 486 1250 l 417 1250 l 417 1181 l 347 1181 l 347 1111 l 208 1111 l 208 1250 m 556 1389 l 694 1389 l 694 1319 l 764 1319 l 764 1250 l 833 1250 l 833 1111 l 694 1111 l 694 1181 l 625 1181 l 625 1250 l 556 1250 l 556 1389 z "},"õ":{"ha":1250,"x_min":0,"x_max":1042,"o":"m 0 972 l 69 972 l 69 1042 l 208 1042 l 208 0 l 69 0 l 69 69 l 0 69 l 0 972 m 833 1042 l 972 1042 l 972 972 l 1042 972 l 1042 69 l 972 69 l 972 0 l 833 0 l 833 1042 m 278 1042 l 764 1042 l 764 833 l 278 833 l 278 1042 m 278 208 l 764 208 l 764 0 l 278 0 l 278 208 m 69 1250 l 139 1250 l 139 1319 l 208 1319 l 208 1389 l 347 1389 l 347 1250 l 278 1250 l 278 1181 l 208 1181 l 208 1111 l 69 1111 l 69 1250 m 764 1250 l 833 1250 l 833 1319 l 903 1319 l 903 1389 l 1042 1389 l 1042 1250 l 972 1250 l 972 1181 l 903 1181 l 903 1111 l 764 1111 l 764 1250 m 417 1389 l 556 1389 l 556 1319 l 625 1319 l 625 1250 l 694 1250 l 694 1111 l 556 1111 l 556 1181 l 486 1181 l 486 1250 l 417 1250 l 417 1389 z "},"ö":{"ha":1250,"x_min":0,"x_max":1042,"o":"m 0 972 l 69 972 l 69 1042 l 208 1042 l 208 0 l 69 0 l 69 69 l 0 69 l 0 972 m 833 1042 l 972 1042 l 972 972 l 1042 972 l 1042 69 l 972 69 l 972 0 l 833 0 l 833 1042 m 278 208 l 764 208 l 764 0 l 278 0 l 278 208 m 278 1042 l 764 1042 l 764 833 l 278 833 l 278 1042 m 208 1389 l 417 1389 l 417 1181 l 208 1181 l 208 1389 m 625 1389 l 833 1389 l 833 1181 l 625 1181 l 625 1389 z "},"÷":{"ha":1111,"x_min":0,"x_max":903,"o":"m 0 764 l 903 764 l 903 556 l 0 556 l 0 764 m 347 1111 l 556 1111 l 556 833 l 347 833 l 347 1111 m 347 486 l 556 486 l 556 208 l 347 208 l 347 486 z "},"ø":{"ha":1250,"x_min":0,"x_max":1042,"o":"m 0 972 l 69 972 l 69 1042 l 208 1042 l 208 0 l 69 0 l 69 69 l 0 69 l 0 972 m 833 1042 l 972 1042 l 972 972 l 1042 972 l 1042 69 l 972 69 l 972 0 l 833 0 l 833 1042 m 278 208 l 764 208 l 764 0 l 278 0 l 278 208 m 278 1042 l 764 1042 l 764 833 l 278 833 l 278 1042 m 278 417 l 347 417 l 347 486 l 417 486 l 417 556 l 486 556 l 486 625 l 556 625 l 556 694 l 625 694 l 625 764 l 764 764 l 764 625 l 694 625 l 694 556 l 625 556 l 625 486 l 556 486 l 556 417 l 486 417 l 486 347 l 417 347 l 417 278 l 278 278 l 278 417 z "},"ù":{"ha":1250,"x_min":0,"x_max":1042,"o":"m 0 1042 l 208 1042 l 208 0 l 69 0 l 69 69 l 0 69 l 0 1042 m 833 1042 l 1042 1042 l 1042 69 l 972 69 l 972 0 l 833 0 l 833 1042 m 278 208 l 764 208 l 764 0 l 278 0 l 278 208 m 208 1389 l 417 1389 l 417 1319 l 486 1319 l 486 1250 l 556 1250 l 556 1181 l 625 1181 l 625 1111 l 417 1111 l 417 1181 l 347 1181 l 347 1250 l 278 1250 l 278 1319 l 208 1319 l 208 1389 z "},"ú":{"ha":1250,"x_min":0,"x_max":1042,"o":"m 0 1042 l 208 1042 l 208 0 l 69 0 l 69 69 l 0 69 l 0 1042 m 833 1042 l 1042 1042 l 1042 69 l 972 69 l 972 0 l 833 0 l 833 1042 m 278 208 l 764 208 l 764 0 l 278 0 l 278 208 m 417 1181 l 486 1181 l 486 1250 l 556 1250 l 556 1319 l 625 1319 l 625 1389 l 833 1389 l 833 1319 l 764 1319 l 764 1250 l 694 1250 l 694 1181 l 625 1181 l 625 1111 l 417 1111 l 417 1181 z "},"û":{"ha":1250,"x_min":0,"x_max":1042,"o":"m 0 1042 l 208 1042 l 208 0 l 69 0 l 69 69 l 0 69 l 0 1042 m 833 1042 l 1042 1042 l 1042 69 l 972 69 l 972 0 l 833 0 l 833 1042 m 278 208 l 764 208 l 764 0 l 278 0 l 278 208 m 208 1250 l 278 1250 l 278 1319 l 347 1319 l 347 1389 l 486 1389 l 486 1250 l 417 1250 l 417 1181 l 347 1181 l 347 1111 l 208 1111 l 208 1250 m 556 1389 l 694 1389 l 694 1319 l 764 1319 l 764 1250 l 833 1250 l 833 1111 l 694 1111 l 694 1181 l 625 1181 l 625 1250 l 556 1250 l 556 1389 z "},"ü":{"ha":1250,"x_min":0,"x_max":1042,"o":"m 0 1042 l 208 1042 l 208 0 l 69 0 l 69 69 l 0 69 l 0 1042 m 833 1042 l 1042 1042 l 1042 69 l 972 69 l 972 0 l 833 0 l 833 1042 m 278 208 l 764 208 l 764 0 l 278 0 l 278 208 m 208 1389 l 417 1389 l 417 1181 l 208 1181 l 208 1389 m 625 1389 l 833 1389 l 833 1181 l 625 1181 l 625 1389 z "},"ý":{"ha":1250,"x_min":0,"x_max":1042,"o":"m 833 1042 l 1042 1042 l 1042 -347 l 972 -347 l 972 -417 l 833 -417 l 833 1042 m 0 1042 l 208 1042 l 208 0 l 69 0 l 69 69 l 0 69 l 0 1042 m 278 -208 l 764 -208 l 764 -417 l 278 -417 l 278 -208 m 278 208 l 764 208 l 764 0 l 278 0 l 278 208 m 0 -208 l 208 -208 l 208 -417 l 0 -417 l 0 -208 z "},"þ":{"ha":1250,"x_min":0,"x_max":1042,"o":"m 0 1250 l 208 1250 l 208 -208 l 0 -208 l 0 1250 m 833 1042 l 972 1042 l 972 972 l 1042 972 l 1042 69 l 972 69 l 972 0 l 833 0 l 833 1042 m 278 1042 l 764 1042 l 764 833 l 278 833 l 278 1042 m 278 208 l 764 208 l 764 0 l 278 0 l 278 208 z "},"ÿ":{"ha":1250,"x_min":0,"x_max":1042,"o":"m 833 1042 l 1042 1042 l 1042 -347 l 972 -347 l 972 -417 l 833 -417 l 833 1042 m 0 1042 l 208 1042 l 208 0 l 69 0 l 69 69 l 0 69 l 0 1042 m 278 -208 l 764 -208 l 764 -417 l 278 -417 l 278 -208 m 278 208 l 764 208 l 764 0 l 278 0 l 278 208 m 417 1181 l 486 1181 l 486 1250 l 556 1250 l 556 1319 l 625 1319 l 625 1389 l 833 1389 l 833 1319 l 764 1319 l 764 1250 l 694 1250 l 694 1181 l 625 1181 l 625 1111 l 417 1111 l 417 1181 m 0 -208 l 208 -208 l 208 -417 l 0 -417 l 0 -208 z "},"Ё":{"ha":1250,"x_min":0,"x_max":1042,"o":"m 0 1319 l 208 1319 l 208 0 l 0 0 l 0 1319 m 278 208 l 1042 208 l 1042 0 l 278 0 l 278 208 m 278 1319 l 1042 1319 l 1042 1111 l 278 1111 l 278 1319 m 278 764 l 764 764 l 764 556 l 278 556 l 278 764 m 208 1667 l 417 1667 l 417 1458 l 208 1458 l 208 1667 m 625 1667 l 833 1667 l 833 1458 l 625 1458 l 625 1667 z "},"Ђ":{"ha":1528,"x_min":0,"x_max":1319,"o":"m 278 1319 l 486 1319 l 486 0 l 278 0 l 278 1319 m 1111 1042 l 1250 1042 l 1250 972 l 1319 972 l 1319 69 l 1250 69 l 1250 0 l 1111 0 l 1111 1042 m 556 1042 l 1042 1042 l 1042 833 l 556 833 l 556 1042 m 694 208 l 1042 208 l 1042 0 l 694 0 l 694 208 m 556 1319 l 833 1319 l 833 1111 l 556 1111 l 556 1319 m 0 1319 l 208 1319 l 208 1111 l 0 1111 l 0 1319 z "},"Ѓ":{"ha":1250,"x_min":0,"x_max":1042,"o":"m 0 1319 l 208 1319 l 208 0 l 0 0 l 0 1319 m 278 1319 l 764 1319 l 764 1111 l 278 1111 l 278 1319 m 417 1458 l 486 1458 l 486 1528 l 556 1528 l 556 1597 l 625 1597 l 625 1667 l 833 1667 l 833 1597 l 764 1597 l 764 1528 l 694 1528 l 694 1458 l 625 1458 l 625 1389 l 417 1389 l 417 1458 m 833 1319 l 1042 1319 l 1042 1111 l 833 1111 l 833 1319 z "},"Є":{"ha":1250,"x_min":0,"x_max":1042,"o":"m 0 1250 l 69 1250 l 69 1319 l 208 1319 l 208 0 l 69 0 l 69 69 l 0 69 l 0 1250 m 278 1319 l 764 1319 l 764 1111 l 278 1111 l 278 1319 m 278 208 l 764 208 l 764 0 l 278 0 l 278 208 m 278 764 l 625 764 l 625 556 l 278 556 l 278 764 m 833 1319 l 1042 1319 l 1042 1111 l 833 1111 l 833 1319 m 833 208 l 1042 208 l 1042 0 l 833 0 l 833 208 z "},"Ѕ":{"ha":1250,"x_min":0,"x_max":1042,"o":"m 0 1250 l 69 1250 l 69 1319 l 208 1319 l 208 556 l 69 556 l 69 625 l 0 625 l 0 1250 m 833 764 l 972 764 l 972 694 l 1042 694 l 1042 69 l 972 69 l 972 0 l 833 0 l 833 764 m 278 208 l 764 208 l 764 0 l 278 0 l 278 208 m 278 764 l 764 764 l 764 556 l 278 556 l 278 764 m 278 1319 l 764 1319 l 764 1111 l 278 1111 l 278 1319 m 0 208 l 208 208 l 208 0 l 0 0 l 0 208 m 833 1319 l 1042 1319 l 1042 1111 l 833 1111 l 833 1319 z "},"І":{"ha":1250,"x_min":0,"x_max":1042,"o":"m 417 1319 l 625 1319 l 625 0 l 417 0 l 417 1319 m 0 1319 l 347 1319 l 347 1111 l 0 1111 l 0 1319 m 694 1319 l 1042 1319 l 1042 1111 l 694 1111 l 694 1319 m 0 208 l 347 208 l 347 0 l 0 0 l 0 208 m 694 208 l 1042 208 l 1042 0 l 694 0 l 694 208 z "},"Ї":{"ha":1250,"x_min":0,"x_max":1042,"o":"m 417 1319 l 625 1319 l 625 0 l 417 0 l 417 1319 m 694 1319 l 1042 1319 l 1042 1111 l 694 1111 l 694 1319 m 0 1319 l 347 1319 l 347 1111 l 0 1111 l 0 1319 m 0 208 l 347 208 l 347 0 l 0 0 l 0 208 m 694 208 l 1042 208 l 1042 0 l 694 0 l 694 208 m 208 1667 l 417 1667 l 417 1458 l 208 1458 l 208 1667 m 625 1667 l 833 1667 l 833 1458 l 625 1458 l 625 1667 z "},"Ј":{"ha":1250,"x_min":0,"x_max":1042,"o":"m 833 1319 l 1042 1319 l 1042 69 l 972 69 l 972 0 l 833 0 l 833 1319 m 0 556 l 208 556 l 208 0 l 69 0 l 69 69 l 0 69 l 0 556 m 278 1319 l 764 1319 l 764 1111 l 278 1111 l 278 1319 m 278 208 l 764 208 l 764 0 l 278 0 l 278 208 m 0 1319 l 208 1319 l 208 1111 l 0 1111 l 0 1319 z "},"Љ":{"ha":1806,"x_min":0,"x_max":1597,"o":"m 694 1319 l 903 1319 l 903 0 l 694 0 l 694 1319 m 0 1042 l 69 1042 l 69 1111 l 139 1111 l 139 1181 l 208 1181 l 208 0 l 0 0 l 0 1042 m 1389 764 l 1528 764 l 1528 694 l 1597 694 l 1597 69 l 1528 69 l 1528 0 l 1389 0 l 1389 764 m 278 1319 l 625 1319 l 625 1111 l 278 1111 l 278 1319 m 972 764 l 1319 764 l 1319 556 l 972 556 l 972 764 m 972 208 l 1319 208 l 1319 0 l 972 0 l 972 208 z "},"Њ":{"ha":1806,"x_min":0,"x_max":1597,"o":"m 0 1319 l 208 1319 l 208 0 l 0 0 l 0 1319 m 694 1319 l 903 1319 l 903 0 l 694 0 l 694 1319 m 1389 764 l 1528 764 l 1528 694 l 1597 694 l 1597 69 l 1528 69 l 1528 0 l 1389 0 l 1389 764 m 972 764 l 1319 764 l 1319 556 l 972 556 l 972 764 m 278 764 l 625 764 l 625 556 l 278 556 l 278 764 m 972 208 l 1319 208 l 1319 0 l 972 0 l 972 208 z "},"Ћ":{"ha":1528,"x_min":0,"x_max":1319,"o":"m 278 1319 l 486 1319 l 486 0 l 278 0 l 278 1319 m 1111 1042 l 1250 1042 l 1250 972 l 1319 972 l 1319 0 l 1111 0 l 1111 1042 m 556 1042 l 1042 1042 l 1042 833 l 556 833 l 556 1042 m 556 1319 l 833 1319 l 833 1111 l 556 1111 l 556 1319 m 0 1319 l 208 1319 l 208 1111 l 0 1111 l 0 1319 z "},"Ќ":{"ha":1250,"x_min":0,"x_max":1042,"o":"m 0 1319 l 208 1319 l 208 0 l 0 0 l 0 1319 m 278 764 l 347 764 l 347 833 l 417 833 l 417 903 l 486 903 l 486 972 l 556 972 l 556 1042 l 625 1042 l 625 1111 l 694 1111 l 694 1181 l 764 1181 l 764 903 l 694 903 l 694 833 l 625 833 l 625 764 l 556 764 l 556 556 l 625 556 l 625 486 l 694 486 l 694 417 l 764 417 l 764 139 l 694 139 l 694 208 l 625 208 l 625 278 l 556 278 l 556 347 l 486 347 l 486 417 l 417 417 l 417 486 l 347 486 l 347 556 l 278 556 l 278 764 m 417 1458 l 486 1458 l 486 1528 l 556 1528 l 556 1597 l 625 1597 l 625 1667 l 833 1667 l 833 1597 l 764 1597 l 764 1528 l 694 1528 l 694 1458 l 625 1458 l 625 1389 l 417 1389 l 417 1458 m 833 278 l 903 278 l 903 208 l 972 208 l 972 139 l 1042 139 l 1042 0 l 833 0 l 833 278 m 833 1319 l 1042 1319 l 1042 1181 l 972 1181 l 972 1111 l 903 1111 l 903 1042 l 833 1042 l 833 1319 z "},"Ў":{"ha":1250,"x_min":0,"x_max":1042,"o":"m 278 903 l 347 903 l 347 833 l 417 833 l 417 764 l 486 764 l 486 694 l 556 694 l 556 764 l 625 764 l 625 833 l 694 833 l 694 903 l 764 903 l 764 625 l 694 625 l 694 556 l 625 556 l 625 0 l 417 0 l 417 556 l 347 556 l 347 625 l 278 625 l 278 903 m 0 1319 l 208 1319 l 208 764 l 139 764 l 139 833 l 69 833 l 69 903 l 0 903 l 0 1319 m 833 1319 l 1042 1319 l 1042 903 l 972 903 l 972 833 l 903 833 l 903 764 l 833 764 l 833 1319 m 556 1528 l 625 1528 l 625 1597 l 694 1597 l 694 1667 l 833 1667 l 833 1528 l 764 1528 l 764 1458 l 694 1458 l 694 1389 l 556 1389 l 556 1528 m 208 1667 l 347 1667 l 347 1597 l 417 1597 l 417 1528 l 486 1528 l 486 1389 l 347 1389 l 347 1458 l 278 1458 l 278 1528 l 208 1528 l 208 1667 z "},"Џ":{"ha":1250,"x_min":0,"x_max":1042,"o":"m 0 1319 l 208 1319 l 208 0 l 0 0 l 0 1319 m 833 1319 l 1042 1319 l 1042 0 l 833 0 l 833 1319 m 278 208 l 764 208 l 764 0 l 278 0 l 278 208 m 417 -69 l 625 -69 l 625 -278 l 417 -278 l 417 -69 z "},"А":{"ha":1250,"x_min":0,"x_max":1042,"o":"m 0 1250 l 69 1250 l 69 1319 l 208 1319 l 208 0 l 0 0 l 0 1250 m 833 1319 l 972 1319 l 972 1250 l 1042 1250 l 1042 0 l 833 0 l 833 1319 m 278 764 l 764 764 l 764 556 l 278 556 l 278 764 m 278 1319 l 764 1319 l 764 1111 l 278 1111 l 278 1319 z "},"Б":{"ha":1250,"x_min":0,"x_max":1042,"o":"m 0 1319 l 208 1319 l 208 0 l 0 0 l 0 1319 m 833 764 l 972 764 l 972 694 l 1042 694 l 1042 69 l 972 69 l 972 0 l 833 0 l 833 764 m 278 208 l 764 208 l 764 0 l 278 0 l 278 208 m 278 764 l 764 764 l 764 556 l 278 556 l 278 764 m 278 1319 l 764 1319 l 764 1111 l 278 1111 l 278 1319 m 833 1319 l 1042 1319 l 1042 1111 l 833 1111 l 833 1319 z "},"В":{"ha":1250,"x_min":0,"x_max":1042,"o":"m 0 1319 l 208 1319 l 208 0 l 0 0 l 0 1319 m 833 1319 l 972 1319 l 972 1250 l 1042 1250 l 1042 764 l 972 764 l 972 694 l 833 694 l 833 1319 m 833 625 l 972 625 l 972 556 l 1042 556 l 1042 69 l 972 69 l 972 0 l 833 0 l 833 625 m 278 764 l 764 764 l 764 556 l 278 556 l 278 764 m 278 208 l 764 208 l 764 0 l 278 0 l 278 208 m 278 1319 l 764 1319 l 764 1111 l 278 1111 l 278 1319 z "},"Г":{"ha":1250,"x_min":0,"x_max":1042,"o":"m 0 1319 l 208 1319 l 208 0 l 0 0 l 0 1319 m 278 1319 l 764 1319 l 764 1111 l 278 1111 l 278 1319 m 833 1319 l 1042 1319 l 1042 1111 l 833 1111 l 833 1319 z "},"Д":{"ha":1528,"x_min":0,"x_max":1319,"o":"m 278 1250 l 347 1250 l 347 1319 l 486 1319 l 486 0 l 278 0 l 278 1250 m 833 1319 l 972 1319 l 972 1250 l 1042 1250 l 1042 0 l 833 0 l 833 1319 m 0 139 l 69 139 l 69 208 l 208 208 l 208 -208 l 0 -208 l 0 139 m 1111 208 l 1250 208 l 1250 139 l 1319 139 l 1319 -208 l 1111 -208 l 1111 208 m 556 208 l 764 208 l 764 0 l 556 0 l 556 208 m 556 1319 l 764 1319 l 764 1111 l 556 1111 l 556 1319 z "},"Е":{"ha":1250,"x_min":0,"x_max":1042,"o":"m 0 1319 l 208 1319 l 208 0 l 0 0 l 0 1319 m 278 208 l 1042 208 l 1042 0 l 278 0 l 278 208 m 278 1319 l 1042 1319 l 1042 1111 l 278 1111 l 278 1319 m 278 764 l 764 764 l 764 556 l 278 556 l 278 764 z "},"Ж":{"ha":1250,"x_min":0,"x_max":1042,"o":"m 0 1319 l 208 1319 l 208 694 l 69 694 l 69 764 l 0 764 l 0 1319 m 833 1319 l 1042 1319 l 1042 764 l 972 764 l 972 694 l 833 694 l 833 1319 m 0 556 l 69 556 l 69 625 l 208 625 l 208 0 l 0 0 l 0 556 m 833 625 l 972 625 l 972 556 l 1042 556 l 1042 0 l 833 0 l 833 625 m 417 486 l 625 486 l 625 0 l 417 0 l 417 486 m 278 764 l 764 764 l 764 556 l 278 556 l 278 764 m 417 1319 l 625 1319 l 625 833 l 417 833 l 417 1319 z "},"З":{"ha":1250,"x_min":0,"x_max":1042,"o":"m 833 1319 l 972 1319 l 972 1250 l 1042 1250 l 1042 764 l 972 764 l 972 694 l 833 694 l 833 1319 m 833 625 l 972 625 l 972 556 l 1042 556 l 1042 69 l 972 69 l 972 0 l 833 0 l 833 625 m 278 1319 l 764 1319 l 764 1111 l 278 1111 l 278 1319 m 278 208 l 764 208 l 764 0 l 278 0 l 278 208 m 347 764 l 764 764 l 764 556 l 347 556 l 347 764 m 0 208 l 208 208 l 208 0 l 0 0 l 0 208 m 0 1319 l 208 1319 l 208 1111 l 0 1111 l 0 1319 z "},"И":{"ha":1250,"x_min":0,"x_max":1042,"o":"m 0 1319 l 208 1319 l 208 0 l 0 0 l 0 1319 m 833 1319 l 1042 1319 l 1042 0 l 833 0 l 833 1319 m 278 556 l 347 556 l 347 625 l 417 625 l 417 694 l 486 694 l 486 764 l 556 764 l 556 833 l 625 833 l 625 903 l 694 903 l 694 972 l 764 972 l 764 694 l 694 694 l 694 625 l 625 625 l 625 556 l 556 556 l 556 486 l 486 486 l 486 417 l 417 417 l 417 347 l 347 347 l 347 278 l 278 278 l 278 556 z "},"Й":{"ha":1250,"x_min":0,"x_max":1042,"o":"m 0 1319 l 208 1319 l 208 0 l 0 0 l 0 1319 m 833 1319 l 1042 1319 l 1042 0 l 833 0 l 833 1319 m 278 556 l 347 556 l 347 625 l 417 625 l 417 694 l 486 694 l 486 764 l 556 764 l 556 833 l 625 833 l 625 903 l 694 903 l 694 972 l 764 972 l 764 694 l 694 694 l 694 625 l 625 625 l 625 556 l 556 556 l 556 486 l 486 486 l 486 417 l 417 417 l 417 347 l 347 347 l 347 278 l 278 278 l 278 556 m 208 1667 l 347 1667 l 347 1597 l 417 1597 l 417 1528 l 486 1528 l 486 1389 l 347 1389 l 347 1458 l 278 1458 l 278 1528 l 208 1528 l 208 1667 m 556 1528 l 625 1528 l 625 1597 l 694 1597 l 694 1667 l 833 1667 l 833 1528 l 764 1528 l 764 1458 l 694 1458 l 694 1389 l 556 1389 l 556 1528 z "},"К":{"ha":1250,"x_min":0,"x_max":1042,"o":"m 0 1319 l 208 1319 l 208 0 l 0 0 l 0 1319 m 278 764 l 347 764 l 347 833 l 417 833 l 417 903 l 486 903 l 486 972 l 556 972 l 556 1042 l 625 1042 l 625 1111 l 694 1111 l 694 1181 l 764 1181 l 764 903 l 694 903 l 694 833 l 625 833 l 625 764 l 556 764 l 556 556 l 625 556 l 625 486 l 694 486 l 694 417 l 764 417 l 764 139 l 694 139 l 694 208 l 625 208 l 625 278 l 556 278 l 556 347 l 486 347 l 486 417 l 417 417 l 417 486 l 347 486 l 347 556 l 278 556 l 278 764 m 833 278 l 903 278 l 903 208 l 972 208 l 972 139 l 1042 139 l 1042 0 l 833 0 l 833 278 m 833 1319 l 1042 1319 l 1042 1181 l 972 1181 l 972 1111 l 903 1111 l 903 1042 l 833 1042 l 833 1319 z "},"Л":{"ha":1250,"x_min":0,"x_max":1042,"o":"m 833 1319 l 1042 1319 l 1042 0 l 833 0 l 833 1319 m 0 1042 l 69 1042 l 69 1111 l 139 1111 l 139 1181 l 208 1181 l 208 0 l 0 0 l 0 1042 m 278 1319 l 764 1319 l 764 1111 l 278 1111 l 278 1319 z "},"М":{"ha":1250,"x_min":0,"x_max":1042,"o":"m 0 1319 l 208 1319 l 208 0 l 0 0 l 0 1319 m 833 1319 l 1042 1319 l 1042 0 l 833 0 l 833 1319 m 278 972 l 347 972 l 347 903 l 417 903 l 417 833 l 486 833 l 486 764 l 556 764 l 556 833 l 625 833 l 625 903 l 694 903 l 694 972 l 764 972 l 764 694 l 694 694 l 694 625 l 625 625 l 625 556 l 556 556 l 556 486 l 486 486 l 486 556 l 417 556 l 417 625 l 347 625 l 347 694 l 278 694 l 278 972 z "},"Н":{"ha":1250,"x_min":0,"x_max":1042,"o":"m 0 1319 l 208 1319 l 208 0 l 0 0 l 0 1319 m 833 1319 l 1042 1319 l 1042 0 l 833 0 l 833 1319 m 278 764 l 764 764 l 764 556 l 278 556 l 278 764 z "},"О":{"ha":1250,"x_min":0,"x_max":1042,"o":"m 0 1250 l 69 1250 l 69 1319 l 208 1319 l 208 0 l 69 0 l 69 69 l 0 69 l 0 1250 m 833 1319 l 972 1319 l 972 1250 l 1042 1250 l 1042 69 l 972 69 l 972 0 l 833 0 l 833 1319 m 278 208 l 764 208 l 764 0 l 278 0 l 278 208 m 278 1319 l 764 1319 l 764 1111 l 278 1111 l 278 1319 z "},"П":{"ha":1250,"x_min":0,"x_max":1042,"o":"m 0 1319 l 208 1319 l 208 0 l 0 0 l 0 1319 m 833 1319 l 1042 1319 l 1042 0 l 833 0 l 833 1319 m 278 1319 l 764 1319 l 764 1111 l 278 1111 l 278 1319 z "},"Р":{"ha":1250,"x_min":0,"x_max":1042,"o":"m 0 1319 l 208 1319 l 208 0 l 0 0 l 0 1319 m 833 1319 l 972 1319 l 972 1250 l 1042 1250 l 1042 625 l 972 625 l 972 556 l 833 556 l 833 1319 m 278 764 l 764 764 l 764 556 l 278 556 l 278 764 m 278 1319 l 764 1319 l 764 1111 l 278 1111 l 278 1319 z "},"С":{"ha":1250,"x_min":0,"x_max":1042,"o":"m 0 1250 l 69 1250 l 69 1319 l 208 1319 l 208 0 l 69 0 l 69 69 l 0 69 l 0 1250 m 278 1319 l 764 1319 l 764 1111 l 278 1111 l 278 1319 m 278 208 l 764 208 l 764 0 l 278 0 l 278 208 m 833 208 l 1042 208 l 1042 0 l 833 0 l 833 208 m 833 1319 l 1042 1319 l 1042 1111 l 833 1111 l 833 1319 z "},"Т":{"ha":1250,"x_min":0,"x_max":1042,"o":"m 417 1319 l 625 1319 l 625 0 l 417 0 l 417 1319 m 0 1319 l 347 1319 l 347 1111 l 0 1111 l 0 1319 m 694 1319 l 1042 1319 l 1042 1111 l 694 1111 l 694 1319 z "},"У":{"ha":1250,"x_min":0,"x_max":1042,"o":"m 833 1319 l 1042 1319 l 1042 69 l 972 69 l 972 0 l 833 0 l 833 1319 m 0 1319 l 208 1319 l 208 556 l 69 556 l 69 625 l 0 625 l 0 1319 m 278 764 l 764 764 l 764 556 l 278 556 l 278 764 m 278 208 l 764 208 l 764 0 l 278 0 l 278 208 m 0 208 l 208 208 l 208 0 l 0 0 l 0 208 z "},"Ф":{"ha":1250,"x_min":0,"x_max":1042,"o":"m 0 1250 l 69 1250 l 69 1319 l 208 1319 l 208 208 l 69 208 l 69 278 l 0 278 l 0 1250 m 833 1319 l 972 1319 l 972 1250 l 1042 1250 l 1042 278 l 972 278 l 972 208 l 833 208 l 833 1319 m 278 417 l 764 417 l 764 208 l 625 208 l 625 0 l 417 0 l 417 208 l 278 208 l 278 417 m 417 1042 l 625 1042 l 625 486 l 417 486 l 417 1042 m 278 1319 l 764 1319 l 764 1111 l 278 1111 l 278 1319 z "},"Х":{"ha":1250,"x_min":0,"x_max":1042,"o":"m 278 903 l 347 903 l 347 833 l 417 833 l 417 764 l 625 764 l 625 833 l 694 833 l 694 903 l 764 903 l 764 694 l 694 694 l 694 625 l 764 625 l 764 417 l 694 417 l 694 486 l 625 486 l 625 556 l 417 556 l 417 486 l 347 486 l 347 417 l 278 417 l 278 625 l 347 625 l 347 694 l 278 694 l 278 903 m 0 417 l 69 417 l 69 486 l 139 486 l 139 556 l 208 556 l 208 0 l 0 0 l 0 417 m 833 556 l 903 556 l 903 486 l 972 486 l 972 417 l 1042 417 l 1042 0 l 833 0 l 833 556 m 0 1319 l 208 1319 l 208 764 l 139 764 l 139 833 l 69 833 l 69 903 l 0 903 l 0 1319 m 833 1319 l 1042 1319 l 1042 903 l 972 903 l 972 833 l 903 833 l 903 764 l 833 764 l 833 1319 z "},"Ц":{"ha":1528,"x_min":0,"x_max":1319,"o":"m 0 1319 l 208 1319 l 208 0 l 0 0 l 0 1319 m 833 1319 l 1042 1319 l 1042 0 l 833 0 l 833 1319 m 278 208 l 764 208 l 764 0 l 278 0 l 278 208 m 1111 208 l 1319 208 l 1319 -208 l 1111 -208 l 1111 208 z "},"Ч":{"ha":1250,"x_min":0,"x_max":1042,"o":"m 833 1319 l 1042 1319 l 1042 0 l 833 0 l 833 1319 m 0 1319 l 208 1319 l 208 556 l 69 556 l 69 625 l 0 625 l 0 1319 m 278 764 l 764 764 l 764 556 l 278 556 l 278 764 z "},"Ш":{"ha":1250,"x_min":0,"x_max":1042,"o":"m 0 1319 l 208 1319 l 208 0 l 0 0 l 0 1319 m 833 1319 l 1042 1319 l 1042 0 l 833 0 l 833 1319 m 417 1319 l 625 1319 l 625 278 l 417 278 l 417 1319 m 278 208 l 764 208 l 764 0 l 278 0 l 278 208 z "},"Щ":{"ha":1528,"x_min":0,"x_max":1319,"o":"m 0 1319 l 208 1319 l 208 0 l 0 0 l 0 1319 m 833 1319 l 1042 1319 l 1042 0 l 833 0 l 833 1319 m 417 1319 l 625 1319 l 625 278 l 417 278 l 417 1319 m 278 208 l 764 208 l 764 0 l 278 0 l 278 208 m 1111 208 l 1319 208 l 1319 -208 l 1111 -208 l 1111 208 z "},"Ъ":{"ha":1528,"x_min":0,"x_max":1319,"o":"m 278 1319 l 486 1319 l 486 0 l 278 0 l 278 1319 m 1111 764 l 1250 764 l 1250 694 l 1319 694 l 1319 69 l 1250 69 l 1250 0 l 1111 0 l 1111 764 m 556 764 l 1042 764 l 1042 556 l 556 556 l 556 764 m 556 208 l 1042 208 l 1042 0 l 556 0 l 556 208 m 0 1319 l 208 1319 l 208 1111 l 0 1111 l 0 1319 z "},"Ы":{"ha":1528,"x_min":0,"x_max":1319,"o":"m 0 1319 l 208 1319 l 208 0 l 0 0 l 0 1319 m 1111 1319 l 1319 1319 l 1319 0 l 1111 0 l 1111 1319 m 833 764 l 972 764 l 972 694 l 1042 694 l 1042 69 l 972 69 l 972 0 l 833 0 l 833 764 m 278 764 l 764 764 l 764 556 l 278 556 l 278 764 m 278 208 l 764 208 l 764 0 l 278 0 l 278 208 z "},"Ь":{"ha":1250,"x_min":0,"x_max":1042,"o":"m 0 1319 l 208 1319 l 208 0 l 0 0 l 0 1319 m 833 764 l 972 764 l 972 694 l 1042 694 l 1042 69 l 972 69 l 972 0 l 833 0 l 833 764 m 278 764 l 764 764 l 764 556 l 278 556 l 278 764 m 278 208 l 764 208 l 764 0 l 278 0 l 278 208 z "},"Э":{"ha":1250,"x_min":0,"x_max":1042,"o":"m 833 1319 l 972 1319 l 972 1250 l 1042 1250 l 1042 69 l 972 69 l 972 0 l 833 0 l 833 1319 m 278 1319 l 764 1319 l 764 1111 l 278 1111 l 278 1319 m 278 208 l 764 208 l 764 0 l 278 0 l 278 208 m 347 764 l 764 764 l 764 556 l 347 556 l 347 764 m 0 208 l 208 208 l 208 0 l 0 0 l 0 208 m 0 1319 l 208 1319 l 208 1111 l 0 1111 l 0 1319 z "},"Ю":{"ha":1389,"x_min":0,"x_max":1181,"o":"m 278 764 l 417 764 l 417 1250 l 486 1250 l 486 1319 l 625 1319 l 625 0 l 486 0 l 486 69 l 417 69 l 417 556 l 278 556 l 278 764 m 0 1319 l 208 1319 l 208 0 l 0 0 l 0 1319 m 972 1319 l 1111 1319 l 1111 1250 l 1181 1250 l 1181 69 l 1111 69 l 1111 0 l 972 0 l 972 1319 m 694 1319 l 903 1319 l 903 1111 l 694 1111 l 694 1319 m 694 208 l 903 208 l 903 0 l 694 0 l 694 208 z "},"Я":{"ha":1250,"x_min":0,"x_max":1042,"o":"m 833 1319 l 1042 1319 l 1042 0 l 833 0 l 833 1319 m 0 1250 l 69 1250 l 69 1319 l 208 1319 l 208 556 l 69 556 l 69 625 l 0 625 l 0 1250 m 0 139 l 69 139 l 69 208 l 139 208 l 139 278 l 208 278 l 208 347 l 278 347 l 278 417 l 347 417 l 347 486 l 625 486 l 625 417 l 556 417 l 556 347 l 486 347 l 486 278 l 417 278 l 417 208 l 347 208 l 347 139 l 278 139 l 278 69 l 208 69 l 208 0 l 0 0 l 0 139 m 278 764 l 764 764 l 764 556 l 278 556 l 278 764 m 278 1319 l 764 1319 l 764 1111 l 278 1111 l 278 1319 z "},"а":{"ha":1250,"x_min":0,"x_max":1042,"o":"m 833 1042 l 972 1042 l 972 972 l 1042 972 l 1042 0 l 833 0 l 833 1042 m 0 556 l 69 556 l 69 625 l 208 625 l 208 0 l 69 0 l 69 69 l 0 69 l 0 556 m 278 625 l 764 625 l 764 417 l 278 417 l 278 625 m 278 208 l 764 208 l 764 0 l 278 0 l 278 208 m 278 1042 l 764 1042 l 764 833 l 278 833 l 278 1042 m 0 1042 l 208 1042 l 208 833 l 0 833 l 0 1042 z "},"б":{"ha":1250,"x_min":0,"x_max":1042,"o":"m 0 1042 l 208 1042 l 208 0 l 0 0 l 0 1042 m 833 625 l 972 625 l 972 556 l 1042 556 l 1042 69 l 972 69 l 972 0 l 833 0 l 833 625 m 278 625 l 764 625 l 764 417 l 278 417 l 278 625 m 278 208 l 764 208 l 764 0 l 278 0 l 278 208 m 278 1042 l 764 1042 l 764 833 l 278 833 l 278 1042 m 833 1042 l 1042 1042 l 1042 833 l 833 833 l 833 1042 z "},"в":{"ha":1250,"x_min":0,"x_max":1042,"o":"m 0 1042 l 208 1042 l 208 0 l 0 0 l 0 1042 m 278 625 l 764 625 l 764 417 l 278 417 l 278 625 m 278 208 l 764 208 l 764 0 l 278 0 l 278 208 m 278 1042 l 764 1042 l 764 833 l 278 833 l 278 1042 m 833 486 l 972 486 l 972 417 l 1042 417 l 1042 69 l 972 69 l 972 0 l 833 0 l 833 486 m 833 1042 l 972 1042 l 972 972 l 1042 972 l 1042 625 l 972 625 l 972 556 l 833 556 l 833 1042 z "},"г":{"ha":1250,"x_min":0,"x_max":1042,"o":"m 0 1042 l 208 1042 l 208 0 l 0 0 l 0 1042 m 278 1042 l 764 1042 l 764 833 l 278 833 l 278 1042 m 833 1042 l 1042 1042 l 1042 833 l 833 833 l 833 1042 z "},"д":{"ha":1528,"x_min":0,"x_max":1319,"o":"m 278 972 l 347 972 l 347 1042 l 486 1042 l 486 0 l 278 0 l 278 972 m 833 1042 l 972 1042 l 972 972 l 1042 972 l 1042 0 l 833 0 l 833 1042 m 0 139 l 69 139 l 69 208 l 208 208 l 208 -208 l 0 -208 l 0 139 m 1111 208 l 1250 208 l 1250 139 l 1319 139 l 1319 -208 l 1111 -208 l 1111 208 m 556 1042 l 764 1042 l 764 833 l 556 833 l 556 1042 m 556 208 l 764 208 l 764 0 l 556 0 l 556 208 z "},"е":{"ha":1250,"x_min":0,"x_max":1042,"o":"m 0 972 l 69 972 l 69 1042 l 208 1042 l 208 0 l 69 0 l 69 69 l 0 69 l 0 972 m 833 1042 l 972 1042 l 972 972 l 1042 972 l 1042 486 l 972 486 l 972 417 l 833 417 l 833 1042 m 278 625 l 764 625 l 764 417 l 278 417 l 278 625 m 278 208 l 764 208 l 764 0 l 278 0 l 278 208 m 278 1042 l 764 1042 l 764 833 l 278 833 l 278 1042 m 833 208 l 1042 208 l 1042 0 l 833 0 l 833 208 z "},"ж":{"ha":1250,"x_min":0,"x_max":1042,"o":"m 278 625 l 764 625 l 764 417 l 278 417 l 278 625 m 0 1042 l 208 1042 l 208 556 l 69 556 l 69 625 l 0 625 l 0 1042 m 833 1042 l 1042 1042 l 1042 625 l 972 625 l 972 556 l 833 556 l 833 1042 m 0 417 l 69 417 l 69 486 l 208 486 l 208 0 l 0 0 l 0 417 m 833 486 l 972 486 l 972 417 l 1042 417 l 1042 0 l 833 0 l 833 486 m 417 1042 l 625 1042 l 625 694 l 417 694 l 417 1042 m 417 347 l 625 347 l 625 0 l 417 0 l 417 347 z "},"з":{"ha":1250,"x_min":0,"x_max":1042,"o":"m 278 1042 l 764 1042 l 764 833 l 278 833 l 278 1042 m 278 625 l 764 625 l 764 417 l 278 417 l 278 625 m 278 208 l 764 208 l 764 0 l 278 0 l 278 208 m 833 486 l 972 486 l 972 417 l 1042 417 l 1042 69 l 972 69 l 972 0 l 833 0 l 833 486 m 833 1042 l 972 1042 l 972 972 l 1042 972 l 1042 625 l 972 625 l 972 556 l 833 556 l 833 1042 m 0 208 l 208 208 l 208 0 l 0 0 l 0 208 m 0 1042 l 208 1042 l 208 833 l 0 833 l 0 1042 z "},"и":{"ha":1250,"x_min":0,"x_max":1042,"o":"m 0 1042 l 208 1042 l 208 0 l 0 0 l 0 1042 m 833 1042 l 1042 1042 l 1042 0 l 833 0 l 833 1042 m 278 486 l 347 486 l 347 556 l 417 556 l 417 625 l 486 625 l 486 694 l 556 694 l 556 764 l 625 764 l 625 833 l 694 833 l 694 903 l 764 903 l 764 625 l 694 625 l 694 556 l 625 556 l 625 486 l 556 486 l 556 417 l 486 417 l 486 347 l 417 347 l 417 278 l 347 278 l 347 208 l 278 208 l 278 486 z "},"й":{"ha":1250,"x_min":0,"x_max":1042,"o":"m 0 1042 l 208 1042 l 208 0 l 0 0 l 0 1042 m 833 1042 l 1042 1042 l 1042 0 l 833 0 l 833 1042 m 278 486 l 347 486 l 347 556 l 417 556 l 417 625 l 486 625 l 486 694 l 556 694 l 556 764 l 625 764 l 625 833 l 694 833 l 694 903 l 764 903 l 764 625 l 694 625 l 694 556 l 625 556 l 625 486 l 556 486 l 556 417 l 486 417 l 486 347 l 417 347 l 417 278 l 347 278 l 347 208 l 278 208 l 278 486 m 208 1389 l 347 1389 l 347 1319 l 417 1319 l 417 1250 l 486 1250 l 486 1111 l 347 1111 l 347 1181 l 278 1181 l 278 1250 l 208 1250 l 208 1389 m 556 1250 l 625 1250 l 625 1319 l 694 1319 l 694 1389 l 833 1389 l 833 1250 l 764 1250 l 764 1181 l 694 1181 l 694 1111 l 556 1111 l 556 1250 z "},"к":{"ha":1250,"x_min":0,"x_max":1042,"o":"m 0 1042 l 208 1042 l 208 0 l 0 0 l 0 1042 m 278 625 l 486 625 l 486 694 l 556 694 l 556 764 l 625 764 l 625 833 l 694 833 l 694 903 l 764 903 l 764 625 l 694 625 l 694 556 l 625 556 l 625 486 l 694 486 l 694 417 l 764 417 l 764 139 l 694 139 l 694 208 l 625 208 l 625 278 l 556 278 l 556 347 l 486 347 l 486 417 l 278 417 l 278 625 m 833 278 l 903 278 l 903 208 l 972 208 l 972 139 l 1042 139 l 1042 0 l 833 0 l 833 278 m 833 1042 l 1042 1042 l 1042 903 l 972 903 l 972 833 l 903 833 l 903 764 l 833 764 l 833 1042 z "},"л":{"ha":1250,"x_min":0,"x_max":1042,"o":"m 833 1042 l 1042 1042 l 1042 0 l 833 0 l 833 1042 m 0 764 l 69 764 l 69 833 l 139 833 l 139 903 l 208 903 l 208 0 l 0 0 l 0 764 m 278 1042 l 764 1042 l 764 833 l 278 833 l 278 1042 z "},"м":{"ha":1250,"x_min":0,"x_max":1042,"o":"m 0 1042 l 208 1042 l 208 0 l 0 0 l 0 1042 m 833 1042 l 1042 1042 l 1042 0 l 833 0 l 833 1042 m 278 833 l 347 833 l 347 764 l 417 764 l 417 694 l 486 694 l 486 625 l 556 625 l 556 694 l 625 694 l 625 764 l 694 764 l 694 833 l 764 833 l 764 556 l 694 556 l 694 486 l 625 486 l 625 417 l 556 417 l 556 347 l 486 347 l 486 417 l 417 417 l 417 486 l 347 486 l 347 556 l 278 556 l 278 833 z "},"н":{"ha":1250,"x_min":0,"x_max":1042,"o":"m 0 1042 l 208 1042 l 208 0 l 0 0 l 0 1042 m 833 1042 l 1042 1042 l 1042 0 l 833 0 l 833 1042 m 278 625 l 764 625 l 764 417 l 278 417 l 278 625 z "},"о":{"ha":1250,"x_min":0,"x_max":1042,"o":"m 0 972 l 69 972 l 69 1042 l 208 1042 l 208 0 l 69 0 l 69 69 l 0 69 l 0 972 m 833 1042 l 972 1042 l 972 972 l 1042 972 l 1042 69 l 972 69 l 972 0 l 833 0 l 833 1042 m 278 1042 l 764 1042 l 764 833 l 278 833 l 278 1042 m 278 208 l 764 208 l 764 0 l 278 0 l 278 208 z "},"п":{"ha":1250,"x_min":0,"x_max":1042,"o":"m 0 1042 l 208 1042 l 208 0 l 0 0 l 0 1042 m 833 1042 l 1042 1042 l 1042 0 l 833 0 l 833 1042 m 278 1042 l 764 1042 l 764 833 l 278 833 l 278 1042 z "},"р":{"ha":1250,"x_min":0,"x_max":1042,"o":"m 0 1042 l 208 1042 l 208 -417 l 0 -417 l 0 1042 m 833 1042 l 972 1042 l 972 972 l 1042 972 l 1042 69 l 972 69 l 972 0 l 833 0 l 833 1042 m 278 1042 l 764 1042 l 764 833 l 278 833 l 278 1042 m 278 208 l 764 208 l 764 0 l 278 0 l 278 208 z "},"с":{"ha":1250,"x_min":0,"x_max":1042,"o":"m 0 972 l 69 972 l 69 1042 l 208 1042 l 208 0 l 69 0 l 69 69 l 0 69 l 0 972 m 278 208 l 764 208 l 764 0 l 278 0 l 278 208 m 278 1042 l 764 1042 l 764 833 l 278 833 l 278 1042 m 833 208 l 1042 208 l 1042 0 l 833 0 l 833 208 m 833 1042 l 1042 1042 l 1042 833 l 833 833 l 833 1042 z "},"т":{"ha":1250,"x_min":0,"x_max":1042,"o":"m 417 1042 l 625 1042 l 625 0 l 417 0 l 417 1042 m 0 1042 l 347 1042 l 347 833 l 0 833 l 0 1042 m 694 1042 l 1042 1042 l 1042 833 l 694 833 l 694 1042 z "},"у":{"ha":1250,"x_min":0,"x_max":1042,"o":"m 833 1042 l 1042 1042 l 1042 -347 l 972 -347 l 972 -417 l 833 -417 l 833 1042 m 0 1042 l 208 1042 l 208 0 l 69 0 l 69 69 l 0 69 l 0 1042 m 278 -208 l 764 -208 l 764 -417 l 278 -417 l 278 -208 m 278 208 l 764 208 l 764 0 l 278 0 l 278 208 m 0 -208 l 208 -208 l 208 -417 l 0 -417 l 0 -208 z "},"ф":{"ha":1250,"x_min":0,"x_max":1042,"o":"m 0 972 l 69 972 l 69 1042 l 208 1042 l 208 0 l 69 0 l 69 69 l 0 69 l 0 972 m 833 1042 l 972 1042 l 972 972 l 1042 972 l 1042 69 l 972 69 l 972 0 l 833 0 l 833 1042 m 278 208 l 764 208 l 764 0 l 625 0 l 625 -208 l 417 -208 l 417 0 l 278 0 l 278 208 m 278 1042 l 417 1042 l 417 1250 l 625 1250 l 625 1042 l 764 1042 l 764 833 l 278 833 l 278 1042 m 417 764 l 625 764 l 625 278 l 417 278 l 417 764 z "},"х":{"ha":1250,"x_min":0,"x_max":1042,"o":"m 278 903 l 347 903 l 347 833 l 417 833 l 417 764 l 486 764 l 486 694 l 556 694 l 556 764 l 625 764 l 625 833 l 694 833 l 694 903 l 764 903 l 764 625 l 694 625 l 694 556 l 625 556 l 625 486 l 694 486 l 694 417 l 764 417 l 764 139 l 694 139 l 694 208 l 625 208 l 625 278 l 556 278 l 556 347 l 486 347 l 486 278 l 417 278 l 417 208 l 347 208 l 347 139 l 278 139 l 278 417 l 347 417 l 347 486 l 417 486 l 417 556 l 347 556 l 347 625 l 278 625 l 278 903 m 0 1042 l 208 1042 l 208 764 l 139 764 l 139 833 l 69 833 l 69 903 l 0 903 l 0 1042 m 0 139 l 69 139 l 69 208 l 139 208 l 139 278 l 208 278 l 208 0 l 0 0 l 0 139 m 833 278 l 903 278 l 903 208 l 972 208 l 972 139 l 1042 139 l 1042 0 l 833 0 l 833 278 m 833 1042 l 1042 1042 l 1042 903 l 972 903 l 972 833 l 903 833 l 903 764 l 833 764 l 833 1042 z "},"ц":{"ha":1528,"x_min":0,"x_max":1319,"o":"m 0 1042 l 208 1042 l 208 0 l 0 0 l 0 1042 m 833 1042 l 1042 1042 l 1042 0 l 833 0 l 833 1042 m 278 208 l 764 208 l 764 0 l 278 0 l 278 208 m 1111 208 l 1319 208 l 1319 -208 l 1111 -208 l 1111 208 z "},"ч":{"ha":1250,"x_min":0,"x_max":1042,"o":"m 833 1042 l 1042 1042 l 1042 0 l 833 0 l 833 1042 m 0 1042 l 208 1042 l 208 417 l 69 417 l 69 486 l 0 486 l 0 1042 m 278 625 l 764 625 l 764 417 l 278 417 l 278 625 z "},"ш":{"ha":1250,"x_min":0,"x_max":1042,"o":"m 0 1042 l 208 1042 l 208 0 l 0 0 l 0 1042 m 833 1042 l 1042 1042 l 1042 0 l 833 0 l 833 1042 m 417 1042 l 625 1042 l 625 278 l 417 278 l 417 1042 m 278 208 l 764 208 l 764 0 l 278 0 l 278 208 z "},"щ":{"ha":1528,"x_min":0,"x_max":1319,"o":"m 0 1042 l 208 1042 l 208 0 l 0 0 l 0 1042 m 833 1042 l 1042 1042 l 1042 0 l 833 0 l 833 1042 m 417 1042 l 625 1042 l 625 278 l 417 278 l 417 1042 m 278 208 l 764 208 l 764 0 l 278 0 l 278 208 m 1111 208 l 1319 208 l 1319 -208 l 1111 -208 l 1111 208 z "},"ъ":{"ha":1528,"x_min":0,"x_max":1319,"o":"m 278 1042 l 486 1042 l 486 0 l 278 0 l 278 1042 m 1111 625 l 1250 625 l 1250 556 l 1319 556 l 1319 69 l 1250 69 l 1250 0 l 1111 0 l 1111 625 m 556 625 l 1042 625 l 1042 417 l 556 417 l 556 625 m 556 208 l 1042 208 l 1042 0 l 556 0 l 556 208 m 0 1042 l 208 1042 l 208 833 l 0 833 l 0 1042 z "},"ы":{"ha":1528,"x_min":0,"x_max":1319,"o":"m 0 1042 l 208 1042 l 208 0 l 0 0 l 0 1042 m 1111 1042 l 1319 1042 l 1319 0 l 1111 0 l 1111 1042 m 833 625 l 972 625 l 972 556 l 1042 556 l 1042 69 l 972 69 l 972 0 l 833 0 l 833 625 m 278 208 l 764 208 l 764 0 l 278 0 l 278 208 m 278 625 l 764 625 l 764 417 l 278 417 l 278 625 z "},"ь":{"ha":1250,"x_min":0,"x_max":1042,"o":"m 0 1042 l 208 1042 l 208 0 l 0 0 l 0 1042 m 833 625 l 972 625 l 972 556 l 1042 556 l 1042 69 l 972 69 l 972 0 l 833 0 l 833 625 m 278 625 l 764 625 l 764 417 l 278 417 l 278 625 m 278 208 l 764 208 l 764 0 l 278 0 l 278 208 z "},"э":{"ha":1250,"x_min":0,"x_max":1042,"o":"m 833 1042 l 972 1042 l 972 972 l 1042 972 l 1042 69 l 972 69 l 972 0 l 833 0 l 833 1042 m 278 1042 l 764 1042 l 764 833 l 278 833 l 278 1042 m 278 208 l 764 208 l 764 0 l 278 0 l 278 208 m 347 625 l 764 625 l 764 417 l 347 417 l 347 625 m 0 208 l 208 208 l 208 0 l 0 0 l 0 208 m 0 1042 l 208 1042 l 208 833 l 0 833 l 0 1042 z "},"ю":{"ha":1389,"x_min":0,"x_max":1181,"o":"m 278 625 l 417 625 l 417 972 l 486 972 l 486 1042 l 625 1042 l 625 0 l 486 0 l 486 69 l 417 69 l 417 417 l 278 417 l 278 625 m 0 1042 l 208 1042 l 208 0 l 0 0 l 0 1042 m 972 1042 l 1111 1042 l 1111 972 l 1181 972 l 1181 69 l 1111 69 l 1111 0 l 972 0 l 972 1042 m 694 1042 l 903 1042 l 903 833 l 694 833 l 694 1042 m 694 208 l 903 208 l 903 0 l 694 0 l 694 208 z "},"я":{"ha":1250,"x_min":0,"x_max":1042,"o":"m 833 1042 l 1042 1042 l 1042 0 l 833 0 l 833 1042 m 0 972 l 69 972 l 69 1042 l 208 1042 l 208 417 l 69 417 l 69 486 l 0 486 l 0 972 m 278 625 l 764 625 l 764 417 l 278 417 l 278 625 m 278 1042 l 764 1042 l 764 833 l 278 833 l 278 1042 m 0 139 l 69 139 l 69 208 l 139 208 l 139 278 l 208 278 l 208 347 l 417 347 l 417 208 l 347 208 l 347 139 l 278 139 l 278 69 l 208 69 l 208 0 l 0 0 l 0 139 z "},"ё":{"ha":1250,"x_min":0,"x_max":1042,"o":"m 0 972 l 69 972 l 69 1042 l 208 1042 l 208 0 l 69 0 l 69 69 l 0 69 l 0 972 m 833 1042 l 972 1042 l 972 972 l 1042 972 l 1042 486 l 972 486 l 972 417 l 833 417 l 833 1042 m 278 208 l 764 208 l 764 0 l 278 0 l 278 208 m 278 625 l 764 625 l 764 417 l 278 417 l 278 625 m 278 1042 l 764 1042 l 764 833 l 278 833 l 278 1042 m 833 208 l 1042 208 l 1042 0 l 833 0 l 833 208 m 208 1389 l 417 1389 l 417 1181 l 208 1181 l 208 1389 m 625 1389 l 833 1389 l 833 1181 l 625 1181 l 625 1389 z "},"ђ":{"ha":1528,"x_min":0,"x_max":1319,"o":"m 694 -208 l 1111 -208 l 1111 1042 l 1250 1042 l 1250 972 l 1319 972 l 1319 -347 l 1250 -347 l 1250 -417 l 694 -417 l 694 -208 m 278 1319 l 486 1319 l 486 0 l 278 0 l 278 1319 m 556 1042 l 1042 1042 l 1042 833 l 556 833 l 556 1042 m 0 1042 l 208 1042 l 208 833 l 0 833 l 0 1042 z "},"ѓ":{"ha":1250,"x_min":0,"x_max":1042,"o":"m 0 1042 l 208 1042 l 208 0 l 0 0 l 0 1042 m 278 1042 l 764 1042 l 764 833 l 278 833 l 278 1042 m 417 1181 l 486 1181 l 486 1250 l 556 1250 l 556 1319 l 625 1319 l 625 1389 l 833 1389 l 833 1319 l 764 1319 l 764 1250 l 694 1250 l 694 1181 l 625 1181 l 625 1111 l 417 1111 l 417 1181 m 833 1042 l 1042 1042 l 1042 833 l 833 833 l 833 1042 z "},"є":{"ha":1250,"x_min":0,"x_max":1042,"o":"m 0 972 l 69 972 l 69 1042 l 208 1042 l 208 0 l 69 0 l 69 69 l 0 69 l 0 972 m 278 1042 l 764 1042 l 764 833 l 278 833 l 278 1042 m 278 208 l 764 208 l 764 0 l 278 0 l 278 208 m 278 625 l 694 625 l 694 417 l 278 417 l 278 625 m 833 1042 l 1042 1042 l 1042 833 l 833 833 l 833 1042 m 833 208 l 1042 208 l 1042 0 l 833 0 l 833 208 z "},"ѕ":{"ha":1250,"x_min":0,"x_max":1042,"o":"m 0 972 l 69 972 l 69 1042 l 208 1042 l 208 417 l 69 417 l 69 486 l 0 486 l 0 972 m 833 625 l 972 625 l 972 556 l 1042 556 l 1042 69 l 972 69 l 972 0 l 833 0 l 833 625 m 278 1042 l 764 1042 l 764 833 l 278 833 l 278 1042 m 278 625 l 764 625 l 764 417 l 278 417 l 278 625 m 278 208 l 764 208 l 764 0 l 278 0 l 278 208 m 0 208 l 208 208 l 208 0 l 0 0 l 0 208 m 833 1042 l 1042 1042 l 1042 833 l 833 833 l 833 1042 z "},"і":{"ha":972,"x_min":0,"x_max":764,"o":"m 278 1042 l 486 1042 l 486 0 l 278 0 l 278 1042 m 0 208 l 208 208 l 208 0 l 0 0 l 0 208 m 556 1042 l 764 1042 l 764 833 l 556 833 l 556 1042 m 556 208 l 764 208 l 764 0 l 556 0 l 556 208 m 278 1389 l 486 1389 l 486 1181 l 278 1181 l 278 1389 m 0 1042 l 208 1042 l 208 833 l 0 833 l 0 1042 z "},"ї":{"ha":972,"x_min":0,"x_max":764,"o":"m 278 1042 l 486 1042 l 486 0 l 278 0 l 278 1042 m 0 1042 l 208 1042 l 208 833 l 0 833 l 0 1042 m 0 208 l 208 208 l 208 0 l 0 0 l 0 208 m 556 208 l 764 208 l 764 0 l 556 0 l 556 208 m 69 1389 l 278 1389 l 278 1181 l 69 1181 l 69 1389 m 486 1389 l 694 1389 l 694 1181 l 486 1181 l 486 1389 m 556 1042 l 764 1042 l 764 833 l 556 833 l 556 1042 z "},"ј":{"ha":972,"x_min":0,"x_max":764,"o":"m 556 1042 l 764 1042 l 764 -347 l 694 -347 l 694 -417 l 556 -417 l 556 1042 m 0 1042 l 486 1042 l 486 833 l 0 833 l 0 1042 m 0 -208 l 486 -208 l 486 -417 l 0 -417 l 0 -208 m 278 1389 l 486 1389 l 486 1181 l 278 1181 l 278 1389 z "},"љ":{"ha":1806,"x_min":0,"x_max":1597,"o":"m 694 1042 l 903 1042 l 903 0 l 694 0 l 694 1042 m 0 764 l 69 764 l 69 833 l 139 833 l 139 903 l 208 903 l 208 0 l 0 0 l 0 764 m 1389 625 l 1528 625 l 1528 556 l 1597 556 l 1597 69 l 1528 69 l 1528 0 l 1389 0 l 1389 625 m 278 1042 l 625 1042 l 625 833 l 278 833 l 278 1042 m 972 208 l 1319 208 l 1319 0 l 972 0 l 972 208 m 972 625 l 1319 625 l 1319 417 l 972 417 l 972 625 z "},"њ":{"ha":1806,"x_min":0,"x_max":1597,"o":"m 0 1042 l 208 1042 l 208 0 l 0 0 l 0 1042 m 694 1042 l 903 1042 l 903 0 l 694 0 l 694 1042 m 1389 625 l 1528 625 l 1528 556 l 1597 556 l 1597 69 l 1528 69 l 1528 0 l 1389 0 l 1389 625 m 972 208 l 1319 208 l 1319 0 l 972 0 l 972 208 m 278 625 l 625 625 l 625 417 l 278 417 l 278 625 m 972 625 l 1319 625 l 1319 417 l 972 417 l 972 625 z "},"ћ":{"ha":1528,"x_min":0,"x_max":1319,"o":"m 278 1319 l 486 1319 l 486 0 l 278 0 l 278 1319 m 1111 1042 l 1250 1042 l 1250 972 l 1319 972 l 1319 0 l 1111 0 l 1111 1042 m 556 1042 l 1042 1042 l 1042 833 l 556 833 l 556 1042 m 0 1042 l 208 1042 l 208 833 l 0 833 l 0 1042 z "},"ќ":{"ha":1250,"x_min":0,"x_max":1042,"o":"m 0 1042 l 208 1042 l 208 0 l 0 0 l 0 1042 m 278 625 l 486 625 l 486 694 l 556 694 l 556 764 l 625 764 l 625 833 l 694 833 l 694 903 l 764 903 l 764 625 l 694 625 l 694 556 l 625 556 l 625 486 l 694 486 l 694 417 l 764 417 l 764 139 l 694 139 l 694 208 l 625 208 l 625 278 l 556 278 l 556 347 l 486 347 l 486 417 l 278 417 l 278 625 m 417 1181 l 486 1181 l 486 1250 l 556 1250 l 556 1319 l 625 1319 l 625 1389 l 833 1389 l 833 1319 l 764 1319 l 764 1250 l 694 1250 l 694 1181 l 625 1181 l 625 1111 l 417 1111 l 417 1181 m 833 1042 l 1042 1042 l 1042 903 l 972 903 l 972 833 l 903 833 l 903 764 l 833 764 l 833 1042 m 833 278 l 903 278 l 903 208 l 972 208 l 972 139 l 1042 139 l 1042 0 l 833 0 l 833 278 z "},"ў":{"ha":1250,"x_min":0,"x_max":1042,"o":"m 833 1042 l 1042 1042 l 1042 -347 l 972 -347 l 972 -417 l 833 -417 l 833 1042 m 0 1042 l 208 1042 l 208 0 l 69 0 l 69 69 l 0 69 l 0 1042 m 278 -208 l 764 -208 l 764 -417 l 278 -417 l 278 -208 m 278 208 l 764 208 l 764 0 l 278 0 l 278 208 m 208 1389 l 347 1389 l 347 1319 l 417 1319 l 417 1250 l 486 1250 l 486 1111 l 347 1111 l 347 1181 l 278 1181 l 278 1250 l 208 1250 l 208 1389 m 556 1250 l 625 1250 l 625 1319 l 694 1319 l 694 1389 l 833 1389 l 833 1250 l 764 1250 l 764 1181 l 694 1181 l 694 1111 l 556 1111 l 556 1250 m 0 -208 l 208 -208 l 208 -417 l 0 -417 l 0 -208 z "},"џ":{"ha":1250,"x_min":0,"x_max":1042,"o":"m 0 1042 l 208 1042 l 208 0 l 0 0 l 0 1042 m 833 1042 l 1042 1042 l 1042 0 l 833 0 l 833 1042 m 278 208 l 764 208 l 764 0 l 278 0 l 278 208 m 417 -69 l 625 -69 l 625 -278 l 417 -278 l 417 -69 z "},"Ґ":{"ha":1250,"x_min":0,"x_max":1042,"o":"m 0 1319 l 208 1319 l 208 0 l 0 0 l 0 1319 m 833 1597 l 1042 1597 l 1042 1111 l 833 1111 l 833 1597 m 278 1319 l 764 1319 l 764 1111 l 278 1111 l 278 1319 z "},"ґ":{"ha":1250,"x_min":0,"x_max":1042,"o":"m 0 1042 l 208 1042 l 208 0 l 0 0 l 0 1042 m 278 1042 l 764 1042 l 764 833 l 278 833 l 278 1042 m 833 1250 l 1042 1250 l 1042 833 l 833 833 l 833 1250 z "},"№":{"ha":1528,"x_min":0,"x_max":1319,"o":"m 0 1319 l 208 1319 l 208 0 l 0 0 l 0 1319 m 833 1319 l 1042 1319 l 1042 0 l 833 0 l 833 1319 m 278 972 l 347 972 l 347 903 l 417 903 l 417 833 l 486 833 l 486 764 l 556 764 l 556 694 l 625 694 l 625 625 l 694 625 l 694 556 l 764 556 l 764 278 l 694 278 l 694 347 l 625 347 l 625 417 l 556 417 l 556 486 l 486 486 l 486 556 l 417 556 l 417 625 l 347 625 l 347 694 l 278 694 l 278 972 m 1111 1319 l 1319 1319 l 1319 1111 l 1111 1111 l 1111 1319 m 1111 1042 l 1319 1042 l 1319 972 l 1111 972 l 1111 1042 z "},"#":{"ha":1389,"x_min":0,"x_max":1181,"o":"m 208 1319 l 417 1319 l 417 0 l 208 0 l 208 1319 m 764 1319 l 972 1319 l 972 0 l 764 0 l 764 1319 m 486 1111 l 694 1111 l 694 903 l 486 903 l 486 1111 m 486 417 l 694 417 l 694 208 l 486 208 l 486 417 m 1042 417 l 1181 417 l 1181 208 l 1042 208 l 1042 417 m 1042 1111 l 1181 1111 l 1181 903 l 1042 903 l 1042 1111 m 0 1111 l 139 1111 l 139 903 l 0 903 l 0 1111 m 0 417 l 139 417 l 139 208 l 0 208 l 0 417 z "},"!":{"ha":417,"x_min":0,"x_max":208,"o":"m 0 1319 l 208 1319 l 208 347 l 0 347 l 0 1319 m 0 208 l 208 208 l 208 0 l 0 0 l 0 208 z "},"\"":{"ha":694,"x_min":0,"x_max":486,"o":"m 0 1319 l 208 1319 l 208 903 l 0 903 l 0 1319 m 278 1319 l 486 1319 l 486 903 l 278 903 l 278 1319 z "}}}
